<?xml version="1.0" encoding="UTF-8" standalone="no"?>
<!DOCTYPE svg  PUBLIC '-//W3C//DTD SVG 1.1//EN'  'http://www.w3.org/Graphics/SVG/1.1/DTD/svg11.dtd'>
<svg xmlns="http://www.w3.org/2000/svg">
<defs>
<font id="WindsorBT-Light" horiz-adv-x="1024">
<font-face underline-position="-112" font-weight="400" descent="-410" panose-1="2 3 6 3 7 4 5 2 6 3" units-per-em="2048" unicode-range="U+0020-25CA" bbox="-80 -483 2365 1956" x-height="829" underline-thickness="109" font-family="WindsorBT" ascent="1638" cap-height="1399"/>
<missing-glyph horiz-adv-x="2048"/>
<glyph glyph-name=".notdef" horiz-adv-x="2048"/>
<glyph glyph-name=".null" horiz-adv-x="0"/>
<glyph glyph-name="nonmarkingreturn" horiz-adv-x="2048"/>
<glyph glyph-name="space" horiz-adv-x="598" unicode=" "/>
<glyph glyph-name="exclam" horiz-adv-x="563" unicode="!" d="M401 1272l-90 -965q-1 -21 -9 -33t-21 -12t-20 11t-9 34l-90 965v18q0 59 32.5 95t86.5 36t87 -36.5t33 -94.5v-18zM184 74q0 40 28.5 68t68.5 28q41 0 68.5 -27.5t27.5 -68.5t-28 -70t-68 -29q-39 0 -68 29.5t-29 69.5z"/>
<glyph glyph-name="quotedbl" horiz-adv-x="678" unicode='&quot;' d="M190 864h-32l-64 457q-2 17 -3 26t-1 15q0 48 22 74t62 26q41 0 63.5 -26t22.5 -74q0 -9 -3 -34q-1 -5 -1 -7zM518 864h-31l-65 457q0 2 -1 6q-3 22 -3 33q0 49 22.5 75.5t63.5 26.5q40 0 62 -26t22 -74q0 -14 -0.5 -23t-1.5 -18z"/>
<glyph glyph-name="numbersign" horiz-adv-x="1575" unicode="#" d="M778 1456h133l-168 -471h287l168 471h131l-166 -471h307l-40 -117h-310l-100 -286h332l-43 -115h-330l-166 -469h-133l166 469h-287l-166 -469h-131l166 469h-324l43 115h322l100 286h-348l43 117h348zM700 868l-100 -286h289l102 286h-291z"/>
<glyph glyph-name="dollar" horiz-adv-x="1194" unicode="$" d="M559 1401v98q0 13 9 22t22 9q16 0 24.5 -8.5t8.5 -24.5v-96q187 -7 299 -73.5t112 -166.5q0 -59 -40.5 -97t-104.5 -38q-50 0 -79.5 23.5t-29.5 62.5q0 6 3 21q1 4 1 6q12 -5 22.5 -7t22.5 -2q34 0 54 18t20 48q0 74 -75.5 119t-204.5 45v-533q223 -55 343.5 -173 t120.5 -279q0 -164 -124 -264t-340 -111l-2 -176q0 -13 -9 -21t-22 -8q-15 0 -23 8t-8 23v174q-205 2 -329 75t-124 189q0 69 50.5 116.5t122.5 47.5q56 0 93.5 -31.5t37.5 -79.5q0 -10 -3.5 -22.5t-9.5 -26.5q-19 14 -37.5 20.5t-35.5 6.5q-38 0 -60 -23.5t-22 -62.5 q0 -77 83.5 -121.5t233.5 -46.5v616q-221 60 -324.5 154t-103.5 236q0 150 113.5 244.5t314.5 109.5zM559 1360q-128 -6 -202 -73.5t-74 -176.5q0 -103 69 -170t207 -96v516zM623 41q143 3 219 75.5t76 207.5q0 116 -78 200t-217 117v-600z"/>
<glyph glyph-name="percent" horiz-adv-x="1706" unicode="%" d="M401 1421q135 0 221.5 -131.5t86.5 -341.5q0 -170 -85 -274.5t-223 -104.5q-136 0 -220.5 104.5t-84.5 274.5q0 210 86 341.5t219 131.5zM1305 829q134 0 220.5 -131t86.5 -342q0 -171 -85.5 -276t-221.5 -105t-222 105.5t-86 275.5q0 210 87 341.5t221 131.5zM449 0h-84 l915 1399h86zM1305 18q81 0 119 82t38 256q0 238 -36 334t-121 96q-84 0 -121 -94.5t-37 -312.5q0 -193 37 -277t121 -84zM401 612q82 0 120 82t38 256q0 238 -36 334t-122 96q-83 0 -120 -94.5t-37 -312.5q0 -193 37 -277t120 -84z"/>
<glyph glyph-name="ampersand" horiz-adv-x="2142" unicode="&amp;" d="M1298 150q-138 -52 -272.5 -78.5t-261.5 -26.5q-231 0 -373.5 93t-142.5 239q0 135 154 244.5t495 216.5q2 169 105 283t247 114q75 0 120.5 -43t45.5 -113q0 -72 -65 -125t-260 -127q54 -154 144 -293.5t212 -259.5q253 128 385.5 287.5t132.5 335.5q0 235 -234 366.5 t-657 131.5q-409 0 -664 -95.5t-255 -240.5q0 -49 24 -77.5t76 -41.5q8 -2 24 -4q35 -5 35 -25q0 -9 -4.5 -14t-17.5 -10l-182 -64q-63 17 -99.5 63.5t-36.5 108.5q0 66 48.5 129t146.5 125q152 96 379 144.5t526 48.5q485 0 774 -139t289 -367q0 -169 -165.5 -346 t-487.5 -352q70 -71 143.5 -112.5t124.5 -41.5q40 0 81.5 30.5t45.5 30.5q8 0 14 -6t6 -14q0 -40 -79.5 -95t-163.5 -55q-75 0 -160.5 42t-196.5 133zM1065 872q120 39 187 97t67 125q0 40 -26.5 66t-67.5 26q-71 0 -121.5 -67t-50.5 -165q0 -15 3 -35t9 -47zM903 791 q-222 -67 -322 -158.5t-100 -226.5q0 -132 114 -217t294 -85q78 0 168.5 21t189.5 61q-120 126 -206.5 278.5t-137.5 326.5z"/>
<glyph glyph-name="quotesingle" horiz-adv-x="348" unicode="&apos;" d="M190 864h-32l-66 457q-1 8 -1.5 16t-0.5 23q0 50 21.5 76t62.5 26t63.5 -26t22.5 -74q0 -9 -3 -34q-1 -5 -1 -7z"/>
<glyph glyph-name="parenleft" horiz-adv-x="635" unicode="(" d="M539 -356h-66q-165 238 -248.5 461.5t-83.5 426.5q0 204 83.5 427.5t248.5 461.5h66q-106 -198 -158.5 -419.5t-52.5 -469.5q0 -249 52 -467.5t159 -420.5z"/>
<glyph glyph-name="parenright" horiz-adv-x="635" unicode=")" d="M96 1421h66q165 -238 248.5 -461.5t83.5 -427.5q0 -203 -83.5 -426.5t-248.5 -461.5h-66q107 202 159 420.5t52 467.5q0 250 -52 468.5t-159 420.5z"/>
<glyph glyph-name="asterisk" horiz-adv-x="829" unicode="*" d="M414 1020l-146 -213l-86 59l160 203l-238 68l31 96l232 -78l2 244h90v-244l231 76l33 -92l-242 -68l164 -205l-82 -57z"/>
<glyph glyph-name="plus" horiz-adv-x="1706" unicode="+" d="M795 1221h118v-551h539v-117h-539v-553h-118v553h-541v117h541v551z"/>
<glyph glyph-name="comma" horiz-adv-x="598" unicode="," d="M207 68q0 37 27.5 64.5t64.5 27.5q44 0 73 -39t29 -98q0 -77 -51 -139t-108 -62q-13 0 -19 3.5t-6 10.5t51 46.5t51 78.5q0 18 -27 21q-21 2 -34 8q-24 10 -37.5 30.5t-13.5 47.5z"/>
<glyph glyph-name="hyphen" horiz-adv-x="602" unicode="-" d="M135 460q4 16 13 21.5t34 5.5h211q59 0 94 22q6 3 7 3q3 0 5.5 -1.5t2.5 -4.5t-3 -10q-1 -3 -1 -4l-33 -123q-4 -16 -11.5 -21.5t-33.5 -5.5h-213q-59 0 -93 -22l-5 -3q-6 1 -8 2t-3 5q0 2 3 10q1 2 1 4z"/>
<glyph glyph-name="period" horiz-adv-x="598" unicode="." d="M207 68q0 37 27.5 64.5t64.5 27.5q38 0 65 -27t27 -65q0 -37 -27.5 -65t-64.5 -28q-36 0 -64 28t-28 65z"/>
<glyph glyph-name="slash" horiz-adv-x="1042" unicode="/" d="M148 -153q-3 -5 -7 -14q-11 -23 -39 -23h-26q-8 0 -16.5 7t-8.5 13q0 14 10 31q3 5 4 7l856 1579q2 3 4 7q16 27 38 27q21 0 32 -3t11 -10q0 -4 -4.5 -15t-10.5 -22z"/>
<glyph glyph-name="zero" horiz-adv-x="1194" unicode="0" d="M895 684q0 353 -73 524.5t-224 171.5q-154 0 -226.5 -174.5t-72.5 -546.5q0 -332 72 -486.5t227 -154.5q157 0 227 156.5t70 509.5zM598 1421q220 0 361 -222.5t141 -580.5q0 -287 -140 -465t-362 -178q-226 0 -365 181t-139 481q0 173 41 320.5t121 265.5 q70 100 154 149t188 49z"/>
<glyph glyph-name="one" horiz-adv-x="1194" unicode="1" d="M512 1110q0 49 -27 70.5t-90 21.5h-30q-25 0 -37.5 7.5t-12.5 21.5q0 10 8 18t35 21l311 147q9 3 11 3.5t4 0.5q8 0 12 -6t4 -18v-1256q0 -29 15 -47.5t51 -32.5q15 -6 40 -13q36 -9 36 -25q-1 -12 -10.5 -17.5t-26.5 -5.5h-397q-18 0 -27.5 6t-9.5 17q0 16 35 25 q26 7 40 13q35 14 50.5 33t15.5 47v969z"/>
<glyph glyph-name="two" horiz-adv-x="1194" unicode="2" d="M195 170l10 -18h614q44 0 83.5 13t72.5 38q19 14 39.5 41.5t32.5 27.5q8 0 12 -3t4 -7q0 -2 -1.5 -8.5t-4.5 -15.5l-92 -238h-908l-10 23q37 108 115.5 208.5t206.5 204.5q84 68 187 146t118 92q6 6 20 19q110 103 142 165q19 40 28.5 88t9.5 103q0 151 -91 241t-244 90 q-125 0 -212 -69.5t-87 -165.5q0 -68 44.5 -112t114.5 -44q44 0 79 19t63 57q16 -21 24 -43t8 -45q0 -68 -56.5 -115t-141.5 -47q-110 0 -181 75.5t-71 190.5q0 150 127.5 246t331.5 96q226 0 359.5 -111t133.5 -298q0 -136 -84 -237.5t-411 -287.5q-170 -95 -254 -166 t-131 -153z"/>
<glyph glyph-name="three" horiz-adv-x="1194" unicode="3" d="M1057 1399l18 -41l-581 -506q6 1 17 2q63 6 91 6q207 0 340 -121t133 -309q0 -207 -156 -331t-419 -124q-192 0 -312 84.5t-120 214.5q0 90 63 149.5t158 59.5q61 0 99 -30.5t38 -77.5q0 -20 -7.5 -36t-23.5 -30q-30 18 -56.5 26.5t-49.5 8.5q-52 0 -84.5 -33t-32.5 -86 q0 -90 89 -149.5t228 -59.5q183 0 282 101t99 286q0 184 -83.5 291t-225.5 107q-55 1 -109 -11l-53 -12q-11 0 -18.5 5.5t-7.5 15.5q0 3 2.5 7t13.5 15l504 434h-422q-88 0 -137.5 -5.5t-83.5 -18.5q-38 -15 -74 -36t-39 -21q-8 0 -13 5t-5 11q0 4 4.5 11.5t11.5 15.5 l184 189q6 8 13 11.5t14 3.5q2 0 7 -2q47 -20 108 -20h596z"/>
<glyph glyph-name="four" horiz-adv-x="1194" unicode="4" d="M905 1421q16 0 21.5 -5.5t5.5 -22.5v-815q0 -27 9 -37.5t32 -10.5h69q24 0 31.5 -6t7.5 -22v-62q0 -15 -7 -21.5t-25 -6.5h-82q-17 0 -25 -9t-8 -30v-232q0 -30 14 -48t49 -32q15 -6 41 -13q35 -9 35 -25q0 -11 -9.5 -17t-27.5 -6h-377q-17 0 -26.5 5.5t-9.5 17.5 q0 16 35 25q25 7 40 13q34 13 49 32t15 48v238q0 21 -5.5 27t-21.5 6h-631q-17 0 -23.5 6t-6.5 22v74q0 15 3.5 26t12.5 23l649 837q9 12 17.5 16.5t27.5 4.5h121zM768 1339l-621 -809h617z"/>
<glyph glyph-name="five" horiz-adv-x="1194" unicode="5" d="M416 1371q6 14 21 21t50 7h476q23 0 49.5 11t29.5 11q5 0 8.5 -3t4.5 -7q0 -4 -2 -10l-41 -118q-5 -15 -17.5 -21.5t-46.5 -6.5h-530l-146 -374l9 -9q59 37 133.5 55.5t156.5 18.5q223 0 364.5 -130t141.5 -335q0 -99 -36.5 -187.5t-106.5 -158.5q-80 -80 -188 -120 t-244 -40q-185 0 -301.5 81.5t-116.5 207.5q0 97 65 165.5t154 68.5q71 0 115.5 -31.5t44.5 -81.5q0 -22 -10 -39t-29 -29q-27 18 -53.5 26.5t-53.5 8.5q-70 0 -109.5 -34.5t-39.5 -96.5q0 -88 89.5 -145.5t234.5 -57.5q188 0 286.5 110.5t98.5 320.5q0 198 -99.5 319 t-263.5 121q-165 0 -287 -108q-15 -13 -18 -13q-6 0 -11 5t-5 11q0 5 2 11.5t6 15.5z"/>
<glyph glyph-name="six" horiz-adv-x="1194" unicode="6" d="M328 735q78 70 155.5 101.5t165.5 31.5q85 0 163 -27t142 -79q81 -66 125.5 -155t44.5 -185q0 -81 -31 -156.5t-92 -138.5q-70 -74 -165 -113t-205 -39q-249 0 -389 176t-140 490q0 365 162 572.5t445 207.5q149 0 246.5 -65.5t97.5 -163.5q0 -70 -50 -115t-129 -45 q-61 0 -101 29t-40 72q0 7 1.5 14.5t5.5 15.5q24 -6 43 -9t32 -3q45 0 70.5 23.5t25.5 64.5q0 60 -65.5 100.5t-169.5 40.5q-176 0 -270.5 -141.5t-94.5 -407.5q0 -37 0.5 -55.5t2.5 -34.5zM920 391q0 194 -86 311t-226 117q-133 0 -213 -95.5t-80 -258.5q0 -213 81.5 -330 t230.5 -117q139 0 216 98t77 275z"/>
<glyph glyph-name="seven" horiz-adv-x="1194" unicode="7" d="M1096 1399q9 0 14.5 -3t5.5 -7q0 -11 -35 -75l-8 -16q-132 -238 -223 -432.5t-154 -371.5q-37 -108 -64.5 -215.5t-49.5 -239.5q-6 -27 -12.5 -33t-24.5 -6h-205q-10 0 -17.5 5t-7.5 11q0 40 80 220t199 372q100 164 237 373.5t158 253.5l-12 12h-473q-82 0 -131 -9 t-86 -30q-34 -19 -66.5 -45t-38.5 -26q-8 0 -13 4.5t-5 11.5q0 5 2 9.5t6 8.5l178 236q7 8 14 12t15 4q2 0 38.5 -12t74.5 -12h604z"/>
<glyph glyph-name="eight" horiz-adv-x="1194" unicode="8" d="M813 793q142 -83 212.5 -183.5t70.5 -218.5q0 -176 -138.5 -296t-345.5 -120q-220 0 -367 108t-147 265q0 114 82.5 215.5t251.5 196.5q-121 67 -183.5 148.5t-62.5 174.5q0 143 125.5 240.5t315.5 97.5q184 0 299.5 -84.5t115.5 -218.5q0 -81 -53.5 -157.5 t-175.5 -167.5zM344 1137q0 -76 48.5 -133t158.5 -109q78 -37 136.5 -59.5t72.5 -22.5q37 0 91 96.5t54 202.5q0 125 -75.5 199.5t-202.5 74.5q-124 0 -203.5 -70t-79.5 -179zM272 346q0 -148 93 -237t247 -89q135 0 217 84.5t82 221.5q0 80 -36 151t-109 131 q-61 49 -143.5 83t-137.5 34q-76 0 -144.5 -118t-68.5 -261z"/>
<glyph glyph-name="nine" horiz-adv-x="1194" unicode="9" d="M866 662q-77 -68 -153.5 -100t-163.5 -32q-201 0 -340 130t-139 315q0 82 31.5 158t91.5 137q70 74 165 112.5t205 38.5q249 0 389 -174.5t140 -488.5q0 -366 -162 -574.5t-445 -208.5q-150 0 -247 66t-97 164q0 69 50 114.5t128 45.5q62 0 102 -29t40 -72q0 -6 -2 -14 t-4 -14q-24 6 -42.5 9t-33.5 3q-45 0 -70.5 -23.5t-25.5 -64.5q0 -59 65 -101.5t162 -42.5q184 0 279.5 140t95.5 409q0 20 -1 41.5t-3 50.5zM274 1006q0 -194 86.5 -311t227.5 -117q133 0 212 95t79 259q0 212 -82 329t-230 117q-139 0 -216 -98t-77 -274z"/>
<glyph glyph-name="colon" horiz-adv-x="598" unicode=":" d="M207 700q0 38 27.5 65.5t64.5 27.5q38 0 65 -27t27 -66q0 -37 -27 -64.5t-65 -27.5q-36 0 -64 28t-28 64zM207 68q0 37 27.5 64.5t64.5 27.5q38 0 65 -27t27 -65q0 -37 -27.5 -65t-64.5 -28q-36 0 -64 28t-28 65z"/>
<glyph glyph-name="semicolon" horiz-adv-x="598" unicode=";" d="M207 68q0 37 27.5 64.5t64.5 27.5q44 0 73 -39t29 -98q0 -77 -51 -139t-108 -62q-13 0 -19 3.5t-6 10.5t51 46.5t51 78.5q0 18 -27 21q-21 2 -34 8q-24 10 -37.5 30.5t-13.5 47.5zM207 700q0 38 27.5 65.5t64.5 27.5q38 0 65 -27t27 -66q0 -37 -27 -64.5t-65 -27.5 q-36 0 -64 28t-28 64z"/>
<glyph glyph-name="less" horiz-adv-x="1706" unicode="&lt;" d="M1442 1145v-127l-1000 -408l1000 -405v-129l-1178 483v103z"/>
<glyph glyph-name="equal" horiz-adv-x="1706" unicode="=" d="M254 860h1198v-117h-1198v117zM254 477h1198v-117h-1198v117z"/>
<glyph glyph-name="greater" horiz-adv-x="1706" unicode="&gt;" d="M264 1145l1178 -483v-103l-1178 -483v129l1000 405l-1000 408v127z"/>
<glyph glyph-name="question" horiz-adv-x="1020" unicode="?" d="M436 1104q10 -13 14.5 -27t4.5 -35q0 -51 -41 -81.5t-109 -30.5q-88 0 -144.5 58t-56.5 147q0 124 116.5 205t299.5 81q182 0 304 -104t122 -256q0 -61 -22 -119.5t-64 -110.5q-54 -69 -177 -158q-33 -24 -48 -36q-114 -89 -145 -148t-31 -153q0 -50 -6.5 -62t-22.5 -12 q-22 0 -31.5 28.5t-9.5 102.5q0 76 28 142t126 182q13 16 40 46q146 164 146 296q0 142 -77 226.5t-203 84.5q-100 0 -164 -47.5t-64 -120.5q0 -50 36 -80t95 -30q18 0 38.5 3t45.5 9zM342 68q0 37 27.5 64.5t64.5 27.5q39 0 65.5 -27t26.5 -65q0 -37 -27.5 -65t-64.5 -28 q-36 0 -64 28t-28 65z"/>
<glyph glyph-name="at" horiz-adv-x="2019" unicode="@" d="M1098 965q-54 0 -99 -31t-92 -100q-72 -108 -114.5 -234t-42.5 -225q0 -93 40.5 -147t108.5 -54q66 0 126 44.5t116 133.5q57 94 91 202.5t34 197.5q0 93 -47.5 153t-120.5 60zM1190 336q-62 -106 -139 -158.5t-170 -52.5q-125 0 -201 92t-76 244q0 108 49 216t138 193 q65 64 144 100t155 36q87 0 143 -49.5t78 -145.5l53 180h143l-170 -610q0 -2 -1 -5q-17 -59 -17 -104q0 -47 25.5 -74.5t68.5 -27.5q34 0 79 17.5t85 48.5q122 90 187 231t65 315q0 140 -50 252t-153 203q-90 79 -216 122.5t-267 43.5q-187 0 -341.5 -58.5t-275.5 -175.5 q-130 -126 -197 -293.5t-67 -369.5q0 -175 57 -304.5t181 -234.5q114 -97 261 -146.5t320 -49.5q163 0 317.5 52t295.5 154l30 -36q-148 -110 -313 -166t-342 -56q-187 0 -342 46.5t-274 138.5q-151 113 -229.5 274.5t-78.5 358.5q0 204 86 381t250 313q131 110 291 165.5 t344 55.5q347 0 553.5 -187t206.5 -499q0 -157 -58 -297t-163 -236q-57 -52 -123.5 -80t-134.5 -28q-97 0 -149 52.5t-58 158.5z"/>
<glyph glyph-name="A" horiz-adv-x="1327" unicode="A" d="M588 1229l-291 -766h582zM721 1421l463 -1212q19 -51 42.5 -87.5t49.5 -53.5q14 -11 43 -21t29 -24q-1 -12 -10.5 -17.5t-26.5 -5.5h-365q-17 0 -26.5 5.5t-10.5 17.5q0 15 32 25q13 4 21 7q28 10 39 21t11 26q0 5 -3 16q-1 3 -1 5l-109 289h-623l-83 -224q-5 -9 -7 -22 t-2 -31q0 -29 17 -47t56 -31l21 -6q46 -12 46 -31q0 -10 -9 -15t-28 -5h-271q-17 0 -26.5 5.5t-9.5 17.5q0 6 63 37.5t88 99.5l479 1261h111z"/>
<glyph glyph-name="B" horiz-adv-x="1356" unicode="B" d="M440 106q0 -28 24.5 -38.5t115.5 -10.5q222 0 337 88.5t115 260.5q0 187 -127 290t-358 103h-19q-59 0 -73.5 -9.5t-14.5 -35.5v-648zM440 913q0 -41 22.5 -53t104.5 -12q165 0 253.5 58.5t88.5 166.5q0 116 -105 195.5t-263 79.5q-64 0 -82.5 -12.5t-18.5 -49.5v-373z M375 1399q155 0 261 -12t181 -37q126 -42 204.5 -120.5t78.5 -158.5q0 -86 -67.5 -148t-207.5 -104q222 -75 332.5 -181.5t110.5 -244.5q0 -184 -159 -288.5t-441 -104.5h-535q-17 0 -26.5 5.5t-10.5 17.5q0 16 36 25q25 7 40 13q35 14 50.5 33t15.5 47v1116q0 29 -13 47 t-44 33q-13 6 -34 12q-36 11 -36 27q0 11 8.5 17t23.5 6h232z"/>
<glyph glyph-name="C" horiz-adv-x="1298" unicode="C" d="M1178 1148l3 -10.5t1 -4.5q0 -11 -8.5 -18t-20.5 -7q-20 0 -55 49q-14 21 -23 33q-75 100 -145.5 143t-157.5 43q-197 0 -318.5 -196.5t-121.5 -522.5q0 -281 128 -442.5t349 -161.5q104 0 173 35t128 117q19 27 42 90t50 63q9 0 16 -9t7 -21q0 -25 -15.5 -66t-42.5 -86 q-56 -97 -159.5 -149t-239.5 -52q-148 0 -280.5 63t-233.5 181q-80 93 -120 205t-40 240q0 122 33.5 236.5t99.5 217.5q96 148 232.5 225.5t300.5 77.5q47 0 112 -7t82 -7q20 0 51.5 6t43.5 6q10 0 16.5 -4t9.5 -12z"/>
<glyph glyph-name="D" horiz-adv-x="1442" unicode="D" d="M442 1292v-1190q0 -38 15 -46.5t65 -8.5q289 0 437.5 147t148.5 433q0 321 -170 515.5t-444 194.5q-27 0 -39.5 -10.5t-12.5 -34.5zM279 1399q254 0 441.5 -51t323.5 -156q142 -110 222 -259.5t80 -303.5q0 -169 -90.5 -309t-249.5 -220q-101 -49 -211.5 -74.5 t-225.5 -25.5h-434q-18 0 -28.5 6t-10.5 17q0 15 37 25q26 7 41 13q34 13 49 32t15 48v1116q0 29 -13 47t-44 33q-13 6 -34 12q-36 11 -36 27q0 10 9.5 16.5t24.5 6.5h134z"/>
<glyph glyph-name="E" horiz-adv-x="1323" unicode="E" d="M815 1399h47q42 0 76 2.5t63 7.5l170 -247q6 -9 8.5 -15.5t2.5 -9.5q0 -7 -6 -12t-15 -5q-18 0 -54.5 40.5t-59.5 60.5q-86 68 -181 99.5t-219 31.5h-166q-24 -1 -32.5 -9t-8.5 -28v-424q0 -15 9.5 -24t23.5 -9h207q44 0 68 8t38 26q7 9 15 25q12 25 28 25q10 0 18 -5 t15 -15l131 -193q1 -2 3 -5q5 -11 5 -15q0 -5 -5.5 -10t-12.5 -5q-3 0 -46 28t-89 52q-31 16 -70 23.5t-102 7.5h-199q-18 0 -27.5 -7.5t-9.5 -23.5v-690q1 -14 10.5 -20t30.5 -7h207q150 0 236.5 17.5t160.5 56.5q69 37 135.5 96.5t77.5 59.5t18 -5.5t7 -13.5 q0 -4 -3.5 -12t-8.5 -14l-170 -242h-1008q-17 0 -26.5 5.5t-10.5 17.5q0 16 36 25q25 7 40 13q35 14 50.5 33t15.5 47v1116q0 29 -13 47t-44 33q-13 6 -34 12q-36 11 -36 27q0 11 8.5 17t23.5 6h672z"/>
<glyph glyph-name="F" horiz-adv-x="1194" unicode="F" d="M815 1399h47q42 0 76 2.5t63 7.5l170 -247q6 -9 8.5 -15.5t2.5 -9.5q0 -7 -6 -12t-15 -5q-18 0 -54.5 40.5t-59.5 60.5q-86 68 -181 99.5t-219 31.5h-166q-24 -1 -32.5 -9t-8.5 -28v-434q0 -15 9.5 -25t23.5 -10h207q44 0 68 8t38 26q7 9 15 26q13 26 28 26q9 0 17 -5.5 t16 -17.5l131 -192q1 -2 4 -7q4 -7 4 -12t-6 -10.5t-12 -5.5t-31 18q-126 93 -276 93h-199q-18 0 -27.5 -8t-9.5 -23v-621q0 -29 15 -47.5t51 -32.5q15 -6 40 -13q36 -9 36 -25q-1 -12 -10.5 -17.5t-26.5 -5.5h-412q-17 0 -26.5 5.5t-10.5 17.5q0 16 36 25q25 7 40 13 q35 14 50.5 33t15.5 47v1116q0 29 -13 47t-44 33q-13 6 -34 12q-36 11 -36 27q0 11 8.5 17t23.5 6h672z"/>
<glyph glyph-name="G" horiz-adv-x="1442" unicode="G" d="M1047 522q0 28 -12.5 45.5t-45.5 32.5q-11 5 -32 12q-37 12 -37 29q0 10 9 15.5t25 5.5h389q17 0 26 -5.5t9 -15.5q0 -17 -39 -30q-19 -6 -30 -11q-34 -16 -46 -33t-12 -45v-381q0 -27 12.5 -45t44.5 -34q11 -5 32 -12q38 -12 38 -30q0 -9 -9 -14.5t-26 -5.5h-423 q-157 0 -276 32t-224 101q-157 103 -236.5 243.5t-79.5 315.5q0 160 61 297t181 248q94 84 206 127t239 43q45 0 102 -9t68 -9q32 0 79.5 17t63.5 17q10 0 18 -6.5t13 -18.5l112 -249q5 -11 7.5 -19.5t2.5 -13.5q0 -10 -7 -17t-17 -7q-18 0 -46.5 43.5t-49.5 66.5 q-72 78 -156 117t-180 39q-207 0 -333 -182t-126 -486q0 -308 160 -470.5t465 -162.5h45q20 0 27.5 8t7.5 29v428z"/>
<glyph glyph-name="H" horiz-adv-x="1583" unicode="H" d="M1346 141q0 -29 14.5 -47.5t50.5 -32.5q15 -6 40 -13q36 -9 36 -25q-1 -12 -10.5 -17.5t-26.5 -5.5h-412q-17 0 -26.5 5.5t-10.5 17.5q0 16 36 25q25 7 40 13q35 14 50.5 33t15.5 47v631h-703v-631q0 -29 15 -47.5t51 -32.5q15 -6 40 -13q36 -9 36 -25 q-1 -12 -10.5 -17.5t-26.5 -5.5h-412q-17 0 -26.5 5.5t-10.5 17.5q0 16 36 25q25 7 40 13q35 14 50.5 33t15.5 47v1116q0 29 -13 47t-44 33q-13 6 -34 12q-36 11 -36 27q0 11 8.5 17t23.5 6h392q15 0 23.5 -6t8.5 -17q0 -16 -36 -27q-21 -6 -34 -12q-32 -15 -44.5 -33 t-12.5 -47v-434h703v434q0 29 -13 47t-44 33q-13 6 -34 12q-36 11 -36 27q0 11 8.5 17t24.5 6h391q15 0 24 -6t9 -17q0 -16 -37 -27q-22 -7 -34 -12q-32 -15 -44 -33t-12 -47v-1116z"/>
<glyph glyph-name="I" horiz-adv-x="707" unicode="I" d="M553 1399q16 0 25.5 -6.5t9.5 -16.5q0 -16 -37 -27q-20 -6 -32 -11q-34 -16 -46 -34t-12 -47v-1116q0 -30 14 -48t49 -32q15 -6 41 -13q35 -9 35 -25q0 -11 -9.5 -17t-27.5 -6h-420q-17 0 -26.5 5.5t-10.5 17.5q0 16 36 25q25 7 40 13q34 13 49 32t15 48v1116 q0 29 -13 47t-44 33q-13 6 -34 12q-36 11 -36 27q0 10 9.5 16.5t25.5 6.5h399z"/>
<glyph glyph-name="J" horiz-adv-x="1057" unicode="J" d="M938 1399q16 0 25.5 -6.5t9.5 -16.5q0 -16 -37 -27q-20 -6 -33 -12q-33 -15 -45 -33t-12 -47v-811q0 -225 -112 -348t-318 -123q-161 0 -265 90.5t-104 229.5q0 105 64 174.5t157 69.5q75 0 121.5 -36t46.5 -91q0 -27 -13.5 -49.5t-41.5 -40.5q-23 24 -49 36.5t-56 12.5 q-62 0 -97.5 -36.5t-35.5 -101.5q0 -88 70.5 -147t177.5 -59q127 0 184.5 86t57.5 276v868q0 29 -13 47t-44 33q-13 6 -34 12q-36 11 -36 27q0 11 8.5 17t24.5 6h399z"/>
<glyph glyph-name="K" horiz-adv-x="1511" unicode="K" d="M440 729l599 529q8 7 12 15.5t4 20.5q0 27 -69 49q-14 4 -22 7q-17 5 -24.5 12t-7.5 16q0 10 9 15.5t26 5.5h301q16 0 25.5 -6t9.5 -17q0 -6 -80 -46.5t-160 -110.5l-133 -119l391 -965q20 -49 84.5 -75t64.5 -37q0 -12 -9.5 -17.5t-26.5 -5.5h-400q-17 0 -26.5 5.5 t-10.5 17.5q0 13 27 23q5 2 8 3q41 16 58.5 31.5t17.5 36.5q0 6 -2 15t-6 20l-328 809l-332 -293v-527q0 -29 15 -47.5t51 -32.5q15 -6 40 -13q36 -9 36 -25q-1 -12 -10.5 -17.5t-26.5 -5.5h-412q-17 0 -26.5 5.5t-10.5 17.5q0 16 36 25q25 7 40 13q35 14 50.5 33t15.5 47 v1116q0 29 -13 47t-44 33q-13 6 -34 12q-36 11 -36 27q0 11 8.5 17t23.5 6h392q15 0 23.5 -6t8.5 -17q0 -16 -36 -27q-21 -6 -34 -12q-32 -15 -44.5 -33t-12.5 -47v-528z"/>
<glyph glyph-name="L" horiz-adv-x="1194" unicode="L" d="M543 1399q15 0 25 -6.5t10 -16.5q0 -16 -37 -27q-22 -7 -34 -12q-32 -15 -44 -33t-12 -47v-1163q0 -21 8 -28.5t33 -8.5h208q133 0 222 29.5t174 99.5q24 21 62 62t54 41q8 0 15.5 -6t7.5 -13q0 -3 -3.5 -9.5t-9.5 -15.5l-170 -255q-23 5 -52.5 7.5t-86.5 2.5h-47h-733 q-17 0 -26.5 5.5t-10.5 17.5q0 16 36 25q25 7 40 13q35 14 50.5 33t15.5 47v1116q0 29 -13 47t-44 33q-13 6 -34 12q-36 11 -36 27q0 11 8.5 17t23.5 6h400z"/>
<glyph glyph-name="M" horiz-adv-x="1735" unicode="M" d="M870 268l379 987q5 11 7.5 20.5t3.5 16.5q0 29 -45.5 51t-45.5 33q0 10 9.5 16.5t25.5 6.5h330q16 0 25.5 -6.5t9.5 -16.5q0 -17 -31.5 -25t-39.5 -13q-15 -9 -21.5 -22t-6.5 -34q0 -4 1.5 -12.5t1.5 -14.5l100 -1108q3 -39 16.5 -55t53.5 -31q14 -5 38 -12 q37 -11 37 -26q0 -10 -7.5 -16.5t-20.5 -6.5h-404q-17 0 -26.5 5.5t-10.5 17.5q0 16 49 30q18 5 30 9q26 8 35 21t9 40v20l-94 1055l-447 -1166q-6 -17 -15 -24.5t-21 -7.5q-22 0 -30 25q-2 5 -3 8l-469 1151l-70 -1041v-8q0 -24 10 -38.5t33 -24.5q21 -10 56 -21 q40 -12 40 -28q0 -12 -9.5 -17.5t-26.5 -5.5h-263q-17 0 -26.5 5.5t-9.5 17.5q0 16 47 29q19 6 30 9q41 13 55 35t17 76l72 1063q1 22 3 46l1 5q0 23 -8 33t-42 23q-3 1 -10 3q-42 15 -42 31q0 11 8.5 17t23.5 6h361q15 0 23.5 -6t8.5 -17q0 -15 -56 -36t-56 -54 q0 -9 2.5 -18.5t11.5 -30.5z"/>
<glyph glyph-name="N" horiz-adv-x="1407" unicode="N" d="M268 141q0 -30 14.5 -48t49.5 -32q15 -6 40 -13q36 -9 36 -25q-1 -12 -10.5 -17.5t-26.5 -5.5h-254q-18 0 -27.5 6t-9.5 17q0 16 35 25q26 7 41 13q34 14 49.5 33t15.5 47v1116q0 29 -12.5 47t-44.5 33q-13 6 -33 12q-37 11 -37 27q0 11 9 17t24 6h289l743 -1028v886 q0 29 -13 47t-44 33q-13 6 -33 12q-37 11 -37 27q0 10 9.5 16.5t25.5 6.5h233q16 0 25.5 -6.5t9.5 -16.5q0 -16 -36 -27q-21 -6 -34 -12q-32 -15 -44.5 -33t-12.5 -47v-1282h-49v25q0 22 -8 42.5t-37 59.5l-846 1168v-1129z"/>
<glyph glyph-name="O" horiz-adv-x="1565" unicode="O" d="M782 1421q135 0 259 -60t229 -177q100 -115 150 -246t50 -281q0 -316 -183.5 -499t-504.5 -183q-318 0 -503 180.5t-185 491.5q0 116 29 221.5t86 198.5q104 169 254 261.5t319 92.5zM1235 709q0 297 -126.5 481t-326.5 184q-199 0 -325.5 -184t-126.5 -481 q0 -322 120.5 -503t331.5 -181q212 0 332.5 181t120.5 503z"/>
<glyph glyph-name="P" horiz-adv-x="1360" unicode="P" d="M440 1286v-641q0 -43 21.5 -57.5t107.5 -14.5h52q197 0 312.5 96t115.5 259q0 181 -138 301.5t-344 120.5h-28q-66 0 -82.5 -13t-16.5 -51zM350 1399q261 0 383.5 -17t224.5 -55q151 -57 239.5 -164.5t88.5 -232.5q0 -196 -183.5 -301t-527.5 -105h-81q-34 0 -44 -8.5 t-10 -32.5v-342q0 -29 15 -47.5t51 -32.5q15 -6 40 -13q36 -9 36 -25q-1 -12 -10.5 -17.5t-26.5 -5.5h-412q-17 0 -26.5 5.5t-10.5 17.5q0 16 36 25q25 7 40 13q35 14 50.5 33t15.5 47v1116q0 29 -13 47t-44 33q-13 6 -34 12q-36 11 -36 27q0 11 8.5 17t23.5 6h207z"/>
<glyph glyph-name="Q" horiz-adv-x="1575" unicode="Q" d="M1106 195q63 94 96 225.5t33 288.5q0 297 -126.5 481t-326.5 184q-199 0 -325.5 -184t-126.5 -481q0 -322 120.5 -503t331.5 -181q82 0 146 22.5t116 71.5q-56 77 -114.5 110t-136.5 33q-49 0 -102 -13q-12 -3 -15 -3t-5.5 2.5t-2.5 5.5q0 20 51 41.5t106 21.5 q83 0 154 -31t127 -91zM1229 106q35 -38 71.5 -56.5t75.5 -18.5q42 -1 80 21l37 22q8 0 11 -3.5t3 -11.5q0 -5 -0.5 -8t-1.5 -6l-55 -154q-3 -8 -11.5 -13t-21.5 -5q-94 0 -176.5 42.5t-136.5 119.5q-76 -30 -155.5 -45t-166.5 -15q-318 0 -503 180.5t-185 491.5 q0 116 29 221.5t86 198.5q104 169 254 261.5t319 92.5q135 0 259 -60t229 -177q100 -115 150 -246t50 -281q0 -178 -61 -317.5t-180 -233.5z"/>
<glyph glyph-name="R" horiz-adv-x="1456" unicode="R" d="M346 1399q273 0 398.5 -17t228.5 -55q154 -58 246 -169t92 -236q0 -109 -63.5 -193t-196.5 -154q-5 -2 -14 -6q-36 -19 -36 -34q0 -8 9 -22q1 -2 2 -3l229 -383q21 -35 93.5 -61.5t72.5 -42.5q0 -13 -6 -18t-27 -5h-24h-398q-17 0 -26.5 5.5t-10.5 17.5q0 12 51.5 33 t51.5 57q0 13 -5.5 28t-15.5 31l-194 309q-11 17 -25.5 24t-38.5 7q-4 0 -21 -1q-70 -3 -138 -3h-86q-34 0 -44 -8.5t-10 -32.5v-326q0 -29 15 -47.5t51 -32.5q15 -6 40 -13q36 -9 36 -25q-1 -12 -10.5 -17.5t-26.5 -5.5h-412q-17 0 -26.5 5.5t-10.5 17.5q0 16 36 25 q25 7 40 13q35 14 50.5 33t15.5 47v1116q0 29 -13 47t-44 33q-13 6 -34 12q-36 11 -36 27q0 11 8.5 17t23.5 6h203zM440 1284v-651q0 -46 24.5 -61t133.5 -15h20q217 0 341 97.5t124 265.5q0 190 -151 310t-395 120q-62 0 -79.5 -12.5t-17.5 -53.5z"/>
<glyph glyph-name="S" horiz-adv-x="1374" unicode="S" d="M987 1385l145 -219q8 -14 10.5 -20t2.5 -9q0 -11 -7 -19t-18 -8q-12 0 -43 31l-8 8q-125 127 -218.5 176t-199.5 49q-123 0 -198.5 -56t-75.5 -147q0 -124 342 -250q32 -12 49 -18q12 -4 35 -13q235 -85 319 -155q85 -69 126.5 -148t41.5 -171q0 -194 -149.5 -317.5 t-388.5 -123.5q-91 0 -212 27t-153 27q-51 -1 -94 -20q-7 -3 -8 -3q-4 0 -8 3t-11 11l-223 318l-2 3q-8 14 -8 19q0 10 7 16.5t15 6.5q23 0 78 -52q33 -31 53 -48q162 -139 285.5 -196.5t251.5 -57.5q165 0 262.5 90t97.5 241q0 130 -82 209.5t-323 165.5q-28 10 -80 28 q-204 71 -258 111q-65 50 -95 104t-30 122q0 143 115 232t303 89q66 0 157.5 -18.5t118.5 -18.5q25 0 53 9q7 2 9 2q5 -1 9 -3.5t7 -6.5z"/>
<glyph glyph-name="T" horiz-adv-x="1360" unicode="T" d="M786 141q0 -29 15 -47.5t51 -32.5q15 -6 40 -13q36 -9 36 -25q-1 -12 -10.5 -17.5t-26.5 -5.5h-422q-18 0 -27 5.5t-10 17.5q0 15 37 25q26 7 41 13q34 13 48.5 32t14.5 48v1157q0 34 -8.5 44t-32.5 10h-79q-87 0 -155.5 -21.5t-125.5 -66.5q-38 -31 -82 -87.5t-59 -56.5 q-10 1 -15.5 7.5t-5.5 15.5q0 5 0.5 7t1.5 5l131 266q70 -11 134.5 -16.5t125.5 -5.5h553q62 0 126.5 5.5t133.5 16.5l132 -266l2.5 -7.5t1.5 -6.5q0 -9 -6.5 -15t-16.5 -6q-14 0 -58.5 56.5t-82.5 87.5q-57 45 -125 66.5t-154 21.5h-82q-23 0 -32 -10t-9 -44v-1157z"/>
<glyph glyph-name="U" horiz-adv-x="1432" unicode="U" d="M551 1399q15 0 24 -6t9 -17q0 -16 -36 -27q-22 -6 -34 -12q-32 -14 -46 -33t-15 -48l-29 -861v-28q0 -169 88.5 -248.5t275.5 -79.5q214 0 310 86.5t96 280.5v851q0 29 -13 47t-44 33q-13 6 -34 12q-36 11 -36 27q0 11 8.5 17t24.5 6h233q16 0 25.5 -6.5t9.5 -16.5 q0 -16 -36 -27q-21 -6 -34 -12q-32 -15 -44.5 -33t-12.5 -47v-849q0 -220 -122 -326.5t-374 -106.5q-259 0 -395.5 110.5t-136.5 320.5v22l27 836v8q0 26 -10.5 39t-42.5 26q-13 5 -32 11q-38 12 -38 28q0 10 9.5 16.5t25.5 6.5h399z"/>
<glyph glyph-name="V" horiz-adv-x="1479" unicode="V" d="M674 -25l-529 1215q-32 71 -51 98.5t-41 42.5q-14 10 -43.5 20.5t-29.5 24.5q0 12 9.5 17.5t26.5 5.5h371q18 0 27.5 -6t9.5 -17q0 -15 -32 -25q-14 -5 -22 -8q-26 -9 -38.5 -20t-12.5 -25q1 -6 2 -10.5t5 -12.5l505 -1183l11 -2l444 1120q5 14 7.5 27t2.5 27 q0 28 -17 46.5t-56 30.5q-13 5 -32 10q-36 10 -36 25q0 11 9.5 17t27.5 6h270q18 0 27.5 -6t9.5 -17q0 -5 -62.5 -37t-88.5 -100l-484 -1221l19 -43h-209z"/>
<glyph glyph-name="W" horiz-adv-x="2099" unicode="W" d="M2073 1399q17 0 26.5 -6t9.5 -17q0 -6 -64 -38.5t-87 -98.5l-442 -1264h-130l-292 854h-13l-280 -811l14 -43h-207l-454 1215q-22 58 -43.5 91t-47.5 50q-14 10 -43.5 20.5t-29.5 24.5q0 11 9.5 17t27.5 6h370q18 0 27.5 -6t9.5 -17q0 -15 -32 -25q-14 -5 -22 -8 q-26 -10 -38 -21.5t-12 -27.5q0 -3 1 -8t3 -10l434 -1184h10l285 826l-96 272q-18 51 -40.5 86.5t-49.5 54.5q-15 10 -43.5 20.5t-28.5 24.5q0 11 9.5 17t27.5 6h370q18 0 27.5 -6t9.5 -17q0 -15 -32 -25q-14 -4 -24 -8q-26 -10 -37 -20.5t-11 -26.5q0 -5 3 -16q1 -3 1 -4 l375 -1114h8l367 1049q5 18 7.5 30.5t2.5 22.5q0 28 -18 46.5t-58 30.5q-11 4 -31 10q-34 9 -35 25q1 12 10.5 17.5t26.5 5.5h269z"/>
<glyph glyph-name="X" horiz-adv-x="1460" unicode="X" d="M1305 1399q18 0 28 -6t10 -17q0 -6 -65 -39t-117 -96l-377 -453l453 -604q58 -78 135.5 -116.5t77.5 -44.5q0 -11 -9.5 -17t-27.5 -6h-432q-18 0 -27 5.5t-10 17.5q0 14 52.5 33t52.5 44q0 8 -1.5 13t-4.5 9l-377 509l-342 -424q-24 -29 -37 -54.5t-13 -41.5 q0 -19 10 -33t27 -21q11 -4 30 -9q36 -11 36 -28q0 -10 -9 -15t-28 -5h-272q-18 0 -27.5 6t-9.5 17q0 8 69 41.5t119 93.5l418 512l-414 544q-59 79 -136 117.5t-77 44.5q0 11 10 17t27 6h436q18 0 27.5 -6t9.5 -17q0 -15 -54 -34t-54 -42q0 -8 1.5 -12.5t6.5 -11.5 l336 -451l309 371q19 23 30 48t11 44q0 18 -10.5 32.5t-26.5 20.5q-11 5 -30 10q-33 9 -33 25q0 11 9.5 17t26.5 6h263z"/>
<glyph glyph-name="Y" horiz-adv-x="1352" unicode="Y" d="M791 612h18l328 599q7 13 10.5 26.5t3.5 28.5q0 26 -14 46.5t-38 29.5q-11 4 -30 9q-34 9 -35 25q0 11 10 17t27 6h272q18 0 27.5 -6t9.5 -17q0 -8 -69 -40.5t-105 -96.5l-379 -690v-408q0 -30 14.5 -48t49.5 -32q15 -6 41 -13q37 -10 37 -25q-1 -12 -10.5 -17.5 t-26.5 -5.5h-412q-17 0 -26.5 5.5t-10.5 17.5q0 16 36 25q25 7 40 13q34 13 49 32t15 48v381l-439 692q-45 72 -129 113.5t-84 48.5q1 12 10.5 17.5t26.5 5.5h432q18 0 27.5 -6t9.5 -17q0 -15 -32 -25q-14 -5 -22 -8q-24 -8 -37 -20t-13 -27q0 -5 1.5 -10.5t4.5 -9.5z"/>
<glyph glyph-name="Z" horiz-adv-x="1313" unicode="Z" d="M975 1319q5 8 6.5 11.5t1.5 4.5q0 6 -5.5 10.5t-12.5 4.5h-166q-112 0 -218 -26.5t-214 -80.5q-43 -21 -89.5 -53.5t-60.5 -32.5q-4 0 -8 4.5t-4 9.5q0 6 1 9.5t3 5.5l164 225q40 -6 86.5 -9t109.5 -3h686l7 -6l-940 -1280q-7 -9 -10 -15.5t-3 -13.5q1 -16 10.5 -22.5 t30.5 -6.5h111q161 0 290.5 17.5t235.5 52.5q103 34 187 95l83 61q7 0 11 -4.5t4 -10.5q0 -4 -5 -14q-1 -1 -1 -2l-215 -275q-33 13 -71 19t-87 6h-879l-2 12z"/>
<glyph glyph-name="bracketleft" horiz-adv-x="635" unicode="[" d="M172 -297v1661q0 17 8.5 26t24.5 9h346q17 0 23 -4t6 -15v-22q0 -11 -6.5 -17t-18.5 -6h-197q-17 0 -25.5 -10t-8.5 -31v-1523q0 -21 8 -30t26 -9h197q12 0 18.5 -6t6.5 -17v-22q0 -11 -6 -15t-23 -4h-346q-16 0 -24.5 9t-8.5 26z"/>
<glyph glyph-name="backslash" horiz-adv-x="1042" unicode="\" d="M903 -153l-846 1585q-5 9 -8.5 19.5t-3.5 14.5q0 7 10.5 11t32.5 4q23 0 39 -29l2 -4l856 -1579l4 -8q10 -20 10 -29q0 -8 -8 -15t-16 -7h-27q-28 0 -38 22q-4 9 -7 15z"/>
<glyph glyph-name="bracketright" horiz-adv-x="635" unicode="]" d="M463 -297q0 -17 -8.5 -26t-24.5 -9h-344q-19 0 -25 4t-6 15v22q0 12 6 17.5t19 5.5h196q19 0 27 9t8 30v1523q0 21 -8.5 31t-26.5 10h-196q-13 0 -19 5.5t-6 17.5v22q0 11 6 15t25 4h344q16 0 24.5 -9t8.5 -26v-1661z"/>
<glyph glyph-name="asciicircum" horiz-adv-x="2048" unicode="^" d="M934 1462h178l520 -565h-92l-518 436l-520 -436h-90z"/>
<glyph glyph-name="underscore" d="M0 -365h1024v-118h-1024v118z" unicode="_"/>
<glyph glyph-name="grave" d="M395 1270l242 -305h-49l-273 235q-29 26 -38 39.5t-9 28.5q0 21 16.5 37t39.5 16q16 0 32 -11.5t39 -39.5z" unicode="`"/>
<glyph glyph-name="a" horiz-adv-x="977" unicode="a" d="M748 610l65 -471q5 -30 16.5 -41.5t36.5 -11.5q42 0 67 27.5t32 27.5q6 0 9 -4t3 -12q0 -46 -48 -83.5t-114 -37.5q-54 0 -91.5 24.5t-64.5 77.5q-47 -66 -114 -98.5t-156 -32.5q-130 0 -216.5 75t-86.5 188q0 121 93 203.5t231 82.5q41 0 83 -11.5t87 -35.5l10 8v11 q0 130 -42.5 192t-131.5 62q-101 0 -203 -90q-22 -19 -27 -19q-9 0 -15.5 6.5t-6.5 14.5q0 12 22.5 40t57.5 54q70 52 134.5 75t139.5 23q107 0 158 -52.5t72 -191.5zM637 244l-19 108q-7 52 -51.5 82.5t-111.5 30.5q-86 0 -135.5 -58.5t-49.5 -160.5q0 -96 49.5 -152.5 t133.5 -56.5q80 0 133 50.5t53 125.5q0 13 -0.5 19t-1.5 12z"/>
<glyph glyph-name="b" horiz-adv-x="1020" unicode="b" d="M313 739l9 -2q63 59 128.5 88t135.5 29q155 0 253.5 -129.5t98.5 -339.5q0 -190 -105.5 -300t-285.5 -110q-114 0 -231 52q-22 10 -27 10q-25 0 -65 -31t-50 -31t-16 9.5t-6 23.5v1174q0 23 -8.5 36t-28.5 21q-16 6 -40 12q-36 8 -36 23q0 8 4 13t20 11l220 95l3 2 q7 4 11 4q9 0 12.5 -6t3.5 -21v-633zM313 274q0 -137 44.5 -194t148.5 -57q131 0 189.5 94.5t58.5 308.5q0 184 -55.5 278.5t-163.5 94.5q-98 0 -160 -82t-62 -215v-228z"/>
<glyph glyph-name="c" horiz-adv-x="872" unicode="c" d="M768 733l-82 -158q-4 -7 -7.5 -9.5t-8.5 -2.5q-9 0 -13 6t-4 21q0 4 2 22.5t2 32.5q0 78 -41.5 121t-115.5 43q-115 0 -181.5 -94.5t-66.5 -259.5q0 -182 79 -291t210 -109q58 0 106.5 23.5t81.5 66.5q9 12 21 32q21 34 36 34q9 0 15 -6.5t6 -16.5q0 -75 -96 -143 t-224 -68q-188 0 -299.5 110.5t-111.5 295.5q0 200 127.5 335.5t312.5 135.5q98 0 178 -35t80 -65q0 -5 -1.5 -10t-4.5 -11z"/>
<glyph glyph-name="d" horiz-adv-x="1042" unicode="d" d="M707 256v330q0 96 -62.5 159.5t-155.5 63.5q-108 0 -165.5 -89t-57.5 -257q0 -201 73 -302.5t216 -101.5q79 0 115.5 47t36.5 150zM727 -31h-2q-9 0 -13.5 9t-4.5 26v74q-40 -52 -96 -77.5t-132 -25.5q-174 0 -286.5 120t-112.5 308q0 194 114.5 322.5t282.5 128.5 q63 0 117.5 -22t101.5 -66l11 2v436q-1 25 -9.5 38.5t-28.5 21.5q-14 5 -39 11q-36 9 -36 23q0 9 4.5 14t19.5 11l220 92q1 1 3 2q7 4 11 4q9 0 12.5 -5t3.5 -19v-1235q0 -44 10.5 -64t35.5 -35q7 -4 25 -11q33 -13 34 -34q0 -8 -6.5 -13t-22.5 -7z"/>
<glyph glyph-name="e" horiz-adv-x="952" unicode="e" d="M842 500l-541 -74q-24 -4 -31.5 -11t-7.5 -22q0 -27 10.5 -67t28.5 -80q40 -93 110.5 -143t161.5 -50q44 0 82.5 12t73.5 35q33 24 69 66.5t48 42.5q9 0 15.5 -5.5t6.5 -13.5q0 -12 -14 -34.5t-39 -46.5q-70 -70 -138.5 -102t-148.5 -32q-202 0 -330 127t-128 328 q0 190 111 307t290 117q76 0 142.5 -23t121.5 -69q62 -52 97.5 -115t35.5 -119q0 -13 -6.5 -20t-19.5 -8zM645 530q10 2 17.5 9t7.5 14q0 99 -66 177.5t-149 78.5q-90 0 -147.5 -73.5t-57.5 -188.5q0 -40 6.5 -53t24.5 -13h10z"/>
<glyph glyph-name="f" horiz-adv-x="674" unicode="f" d="M420 829h180q19 0 27 -6t8 -20q0 -12 -9.5 -18.5t-27.5 -6.5h-166q-20 0 -27.5 -7.5t-7.5 -31.5v-598q0 -53 54.5 -80.5t54.5 -37.5q-1 -12 -8.5 -17.5t-20.5 -5.5h-336q-14 0 -23 5.5t-9 14.5q0 17 37 30q18 7 29 12q30 16 41 33.5t11 45.5v600q0 22 -6 28.5t-26 6.5 h-93q-18 0 -26 5.5t-8 19.5t9 21t27 7h95q18 1 23 6.5t5 30.5q0 26 -4 96.5t-4 114.5q0 164 68 254t190 90q90 0 142.5 -45t52.5 -123q0 -51 -29.5 -82.5t-77.5 -31.5q-42 0 -68 23t-26 61q0 7 1.5 15t4.5 17q6 -1 12 -1.5t17 -0.5q30 0 45.5 13t15.5 37q0 36 -29 57.5 t-77 21.5q-57 0 -97 -47.5t-40 -117.5q0 -35 23.5 -127.5t33.5 -147.5q4 -24 8 -60q5 -52 31 -53z"/>
<glyph glyph-name="g" horiz-adv-x="999" unicode="g" d="M360 29q-61 0 -87.5 -27.5t-26.5 -89.5q0 -86 65.5 -132t188.5 -46q142 0 226.5 42t84.5 111q0 71 -112.5 106.5t-338.5 35.5zM479 801q-89 0 -140.5 -67.5t-51.5 -182.5q0 -110 50 -168.5t144 -58.5q86 0 132 57t46 162q0 124 -46.5 191t-133.5 67zM256 45 q-70 23 -98.5 48.5t-28.5 62.5q0 36 34.5 71.5t104.5 73.5l-4 18q-83 56 -123.5 116.5t-40.5 129.5q0 125 109.5 198.5t309.5 82.5q32 2 55 44q1 2 1 3q42 80 86.5 114.5t104.5 34.5q54 0 85.5 -19.5t31.5 -53.5q0 -30 -26 -50t-66 -20q-22 0 -57 9.5t-48 9.5q-32 0 -61 -27 t-29 -51q0 -13 45 -34q39 -17 64 -32q69 -42 104 -95.5t35 -119.5q0 -118 -102.5 -193t-286.5 -90q-28 -2 -76 -2q-106 -2 -107 -45q0 -51 187 -66q26 -2 40 -3q268 -24 374 -73t106 -142q0 -115 -131.5 -184.5t-353.5 -69.5q-188 0 -296 50t-108 136q0 50 40 90t126 78z "/>
<glyph glyph-name="h" horiz-adv-x="1071" unicode="h" d="M924 141q3 -37 15 -53.5t45 -30.5q4 -2 12 -5q34 -14 34 -29q0 -11 -8 -17t-23 -6h-307q-14 0 -22 5.5t-8 14.5q0 10 48 38t48 77q0 13 -1 27.5t-1 15.5l-45 422q-8 76 -49 117t-109 41q-93 0 -152 -59.5t-59 -153.5v-404q0 -53 53.5 -80.5t53.5 -37.5q-1 -12 -8.5 -17.5 t-20.5 -5.5h-326q-14 0 -23 5.5t-10 14.5q1 17 38 30q18 7 27 11q31 17 42.5 34.5t11.5 45.5v1063q0 24 -8.5 38t-28.5 22q-14 5 -40 11q-35 9 -35 23q0 9 4.5 14t19.5 11l219 92l4 2q6 4 11 4q9 0 12.5 -5.5t3.5 -18.5l-2 -688l6 -2q70 71 149.5 109t157.5 38 q92 0 148.5 -55t66.5 -154z"/>
<glyph glyph-name="i" horiz-adv-x="551" unicode="i" d="M199 655q0 24 -8 37t-28 21q-13 5 -39 11q-36 9 -36 24q0 8 4.5 13t20.5 11l219 94q12 2 12 6q11 0 13.5 -4.5t2.5 -21.5v-705q0 -53 58.5 -80.5t58.5 -37.5q0 -11 -7.5 -17t-20.5 -6h-336q-15 0 -23 5.5t-8 14.5q0 17 36 30q18 7 28 12q30 16 41.5 33.5t11.5 45.5v514z M168 1102q0 30 28.5 49.5t71.5 19.5q46 0 73.5 -19t27.5 -50q0 -30 -28 -50t-71 -20q-45 0 -73.5 19.5t-28.5 50.5z"/>
<glyph glyph-name="j" horiz-adv-x="578" unicode="j" d="M209 655q0 24 -8.5 37t-28.5 21q-14 5 -40 11q-36 9 -36 24q1 9 5 13.5t20 10.5l227 94q1 1 3 2q7 4 11 4q6 0 7.5 -3.5t1.5 -22.5v-959q0 -89 -43.5 -141.5t-116.5 -52.5q-68 0 -119 40.5t-51 86.5q0 10 5 17t11 7q8 0 33.5 -23.5t50.5 -23.5q37 0 52.5 24t15.5 83v751z M178 1102q0 30 27.5 49.5t70.5 19.5q45 0 70 -18.5t25 -50.5t-24.5 -51t-65.5 -19q-46 0 -74.5 19.5t-28.5 50.5z"/>
<glyph glyph-name="k" horiz-adv-x="1096" unicode="k" d="M700 680q21 19 28 31.5t7 27.5q0 19 -40 37.5t-40 32.5q0 11 8 15.5t25 4.5h258q13 0 20 -4.5t7 -11.5q0 -16 -59.5 -38t-108.5 -64l-105 -88l209 -473q24 -55 84 -86.5t60 -40.5q-1 -12 -8.5 -17.5t-20.5 -5.5h-332q-16 0 -23 5t-7 15q0 16 44 32.5t44 47.5q0 5 -2 11.5 t-7 15.5l-166 385l-233 -207v-164q0 -53 53.5 -80.5t53.5 -37.5q-1 -12 -8.5 -17.5t-20.5 -5.5h-326q-14 0 -23 5.5t-10 14.5q1 17 38 30q18 7 27 11q31 17 42.5 34.5t11.5 45.5v1063q0 24 -8.5 38t-28.5 22q-14 5 -40 11q-35 9 -35 23q0 9 4.5 14t19.5 11l219 92l4 2 q6 4 11 4q9 0 12.5 -5.5t3.5 -18.5v-1032z"/>
<glyph glyph-name="l" horiz-adv-x="541" unicode="l" d="M190 1204q0 25 -8.5 38.5t-28.5 21.5q-14 5 -39 11q-36 9 -36 23q0 9 4.5 14t19.5 11l228 92q1 1 3 2q7 4 11 4q9 0 12.5 -5t3.5 -19v-1256q0 -53 53.5 -80.5t53.5 -37.5q-1 -12 -8 -17.5t-21 -5.5h-336q-14 0 -22 5.5t-8 14.5q0 17 36 30q18 7 28 12q31 16 42.5 34 t11.5 45v1063z"/>
<glyph glyph-name="m" horiz-adv-x="1612" unicode="m" d="M870 692h7q68 78 150.5 120t164.5 42q91 0 147.5 -55t67.5 -154l57 -503q4 -39 16 -55t44 -30q3 -1 10 -4q35 -14 35 -30q-1 -12 -8.5 -17.5t-20.5 -5.5h-307q-15 0 -24 6t-9 14q0 10 48 38t48 77v43l-45 423q-7 74 -49 115.5t-110 41.5q-93 0 -152 -59.5t-59 -153.5 v-404q0 -53 54 -80.5t54 -37.5q0 -11 -7.5 -17t-20.5 -6h-328q-15 0 -23 5.5t-8 14.5q0 17 36 30q18 7 27 11q32 17 44 35t12 45v459q0 68 -45.5 113t-114.5 45q-93 0 -152 -59.5t-59 -153.5v-404q0 -53 54.5 -80.5t54.5 -37.5q-1 -12 -8.5 -17.5t-20.5 -5.5h-328 q-14 0 -22 5.5t-8 14.5q0 17 36 30q18 7 28 12q31 16 42.5 34t11.5 45v496q0 23 -8.5 36.5t-27.5 20.5q-15 6 -40 12q-36 8 -36 23q0 9 4 13.5t20 11.5l217 94q1 0 4 2q6 4 11 4q7 0 11.5 -7t4.5 -20l-2 -118l8 -2q70 71 149 109t157 38q77 0 133.5 -43.5t74.5 -118.5z"/>
<glyph glyph-name="n" horiz-adv-x="1081" unicode="n" d="M934 141q4 -40 15 -55t43 -29q3 -1 12 -5q34 -14 34 -29q0 -11 -7.5 -17t-20.5 -6h-308q-14 0 -23 5.5t-9 14.5q0 10 48 38t48 77v43l-45 422q-8 76 -49.5 117t-110.5 41q-93 0 -152 -59.5t-59 -153.5v-404q0 -53 54.5 -80.5t54.5 -37.5q-1 -12 -8.5 -17.5t-20.5 -5.5 h-328q-14 0 -22 5.5t-8 14.5q0 17 36 30q18 7 28 12q31 16 42.5 34t11.5 45v496q0 23 -8.5 36.5t-27.5 20.5q-15 6 -40 12q-36 8 -36 23q0 9 4 13.5t20 11.5l217 94q1 0 4 2q6 4 11 4q7 0 11.5 -7t4.5 -20l-2 -118l8 -2q70 71 149 109t157 38q91 0 147.5 -55t67.5 -154z"/>
<glyph glyph-name="o" d="M506 854q91 0 175 -40.5t148 -115.5q61 -71 93 -152.5t32 -162.5q0 -174 -127.5 -291t-318.5 -117q-193 0 -315.5 125.5t-122.5 321.5q0 189 122 310.5t314 121.5zM428 799q-91 0 -146 -66.5t-55 -179.5q0 -77 21 -159t57 -148q59 -109 128 -161t153 -52q93 0 146.5 64.5 t53.5 176.5q0 105 -39 209.5t-112 194.5q-47 57 -102 89t-105 32z" unicode="o"/>
<glyph glyph-name="p" horiz-adv-x="1049" unicode="p" d="M340 768l8 -4q61 45 121 67.5t119 22.5q162 0 271.5 -131t109.5 -330q0 -177 -108 -297.5t-267 -120.5q-73 0 -136 25.5t-116 75.5v-269q0 -28 11 -45t42 -32q10 -5 27 -11q37 -14 37 -30q0 -10 -8 -15.5t-23 -5.5h-334q-14 0 -23 5.5t-10 15.5q1 16 37 29q19 7 28 11 q32 16 43 33t11 45v830q0 23 -8.5 36.5t-27.5 20.5q-16 6 -41 12q-35 8 -35 23q0 9 4.5 14t19.5 11l219 94l4 2q6 4 11 4q7 0 11.5 -7t4.5 -20zM342 588v-381q0 -74 42 -110t128 -36q126 0 201 110t75 296q0 157 -62 246.5t-171 89.5q-89 0 -151 -62t-62 -153z"/>
<glyph glyph-name="q" horiz-adv-x="1020" unicode="q" d="M868 -193q0 -28 11 -45t42 -32q11 -5 29 -12q37 -14 37 -29q0 -9 -9 -15t-24 -6h-333q-15 0 -23 5.5t-8 15.5q0 16 36 30q18 6 28 11q31 15 42 32t11 45v269q-50 -51 -109.5 -76t-132.5 -25q-169 0 -277 121t-108 310q0 193 117 320.5t292 127.5q74 0 151.5 -28.5 t82.5 -28.5q8 0 18.5 3t20.5 9l72 37q10 5 13.5 6.5t4.5 1.5q6 0 11 -5t5 -11v-1031zM707 594q0 97 -59 157t-154 60q-106 0 -170 -92t-64 -248q0 -191 75 -303.5t202 -112.5q82 0 126 41.5t44 118.5v379z"/>
<glyph glyph-name="r" horiz-adv-x="834" unicode="r" d="M342 848q2 1 3 2q7 4 11 4q9 0 13 -6t4 -21l-2 -221l8 -2q77 133 151 191.5t162 58.5q47 0 79 -22t32 -54q0 -6 -0.5 -9t-1.5 -7l-47 -153q-2 -8 -8.5 -13.5t-14.5 -5.5q-14 0 -23 33q-3 12 -6 21q-13 49 -35 70t-59 21q-78 0 -143 -79.5t-92 -213.5v-301q0 -52 52 -80 t52 -38q0 -11 -7.5 -17t-20.5 -6h-334q-15 0 -23 5.5t-8 14.5q0 17 36 30q18 7 27 11q32 17 44 35t12 45v496q0 23 -8.5 36.5t-28.5 20.5q-15 6 -40 12q-36 8 -36 23q0 8 4.5 13.5t20.5 11.5z"/>
<glyph glyph-name="s" horiz-adv-x="807" unicode="s" d="M676 670q3 -7 4.5 -12t1.5 -9q0 -7 -6.5 -12.5t-16.5 -5.5q-12 0 -55 40.5t-80 65.5q-53 36 -102.5 54t-95.5 18q-50 0 -80.5 -25.5t-30.5 -64.5q0 -37 29 -66.5t96 -60.5q4 -2 15 -7q401 -185 401 -364q0 -110 -77.5 -178t-203.5 -68q-64 0 -134 20.5t-77 20.5 q-11 0 -30 -10t-25 -10q-5 0 -15 12l-1 2l-148 246q-4 7 -6 13t-2 10q0 7 8 13.5t16 6.5q23 0 58 -49q18 -24 28 -37q88 -109 150.5 -146.5t138.5 -37.5q82 0 128 40.5t46 112.5q0 56 -30.5 95t-120.5 88q-58 31 -152 74t-121 63q-53 39 -76.5 77t-23.5 85q0 82 65 135 t168 53q50 0 112 -10.5t77 -10.5q21 0 47 13q8 4 10 4q6 0 11.5 -2.5t7.5 -5.5z"/>
<glyph glyph-name="t" horiz-adv-x="696" unicode="t" d="M211 172v516q0 17 -9.5 26t-27.5 9h-63q-20 0 -27.5 4t-7.5 14q0 12 56 37.5t93 63.5q46 47 76.5 127t50.5 80q14 0 20.5 -14t6.5 -44l2 -166q0 -26 13 -37.5t42 -11.5h109q21 0 28 -5.5t7 -20.5q0 -13 -10 -20t-27 -7h-131q-19 0 -28 -9t-9 -26v-493q0 -95 22.5 -123.5 t81.5 -28.5q56 0 107 35q14 10 18 10q5 0 8.5 -3.5t3.5 -8.5q0 -33 -61.5 -67t-140.5 -34q-99 0 -151 51t-52 146z"/>
<glyph glyph-name="u" horiz-adv-x="1049" unicode="u" d="M709 117l-9 2q-64 -71 -137.5 -108.5t-146.5 -37.5q-106 0 -171 59t-65 152v463q0 30 -8.5 42.5t-28.5 12.5q-23 15 -49 21.5t-26 7.5q0 19 4 26t20 7l219 84q2 6 3.5 8t2.5 2t4 -2t5 -2q1 0 5 1t5 1q2 0 3 -4t1 -25l-2 -596q0 -79 40 -121t116 -42q94 0 153.5 60.5 t59.5 156.5v362q0 30 -9 42.5t-28 12.5q-24 15 -50 21.5t-26 7.5q0 19 4.5 26t19.5 7l220 84q1 5 2.5 7.5t3.5 2.5l3 -2q3 -2 5 -2t6 1l4 1q3 0 4.5 -6t1.5 -23v-680q0 -43 8.5 -57.5t33.5 -30.5q11 -7 42 -17.5t31 -27.5q0 -7 -5.5 -10.5t-16.5 -3.5h-220q-20 0 -26 7 t-6 28v82z"/>
<glyph glyph-name="v" horiz-adv-x="840" unicode="v" d="M246 716l229 -546h10l199 496q7 20 9.5 34.5t2.5 28.5q0 34 -45 54t-45 30q0 7 6.5 11.5t16.5 4.5h217q9 0 14.5 -4t5.5 -12q0 -14 -28 -25q-20 -7 -31 -14q-22 -14 -42 -43.5t-38 -75.5l-272 -680h-54l-319 738q-22 50 -70.5 70.5t-48.5 29.5q0 8 5.5 12t15.5 4h323 q10 0 16.5 -4.5t6.5 -11.5q0 -15 -32 -25q-14 -5 -22 -8q-16 -6 -25 -17.5t-9 -27.5q0 -4 0.5 -7t3.5 -12z"/>
<glyph glyph-name="w" horiz-adv-x="1366" unicode="w" d="M987 170h10l199 496q5 15 7.5 30.5t2.5 32.5q0 34 -44 54t-44 30q0 7 6.5 11.5t16.5 4.5h215q10 0 16 -4.5t6 -11.5q0 -14 -29 -25q-21 -7 -32 -14q-21 -13 -40 -42t-38 -77l-274 -680h-60l-221 570l-231 -570h-60l-289 738q-19 49 -68.5 70t-49.5 30q0 7 6 11.5t16 4.5 h324q9 0 14.5 -4t5.5 -12q0 -15 -30 -25q-14 -5 -21 -8q-18 -7 -27.5 -18.5t-9.5 -26.5q0 -3 1 -7t3 -11l207 -547h10l177 428l-46 115q-19 49 -68.5 70t-49.5 30q0 7 6 11.5t16 4.5h324q9 0 14.5 -4t5.5 -12q0 -15 -30 -25q-14 -5 -21 -8q-18 -7 -27.5 -18.5t-9.5 -26.5 q0 -3 1 -7t3 -11z"/>
<glyph glyph-name="x" horiz-adv-x="1014" unicode="x" d="M575 477l312 -362q42 -51 94.5 -69.5t52.5 -27.5q0 -8 -6 -13t-16 -5h-402q-9 0 -15.5 4.5t-6.5 11.5q0 14 49 30t49 46q0 12 -5 24t-15 23l-197 236l-201 -246q-5 -8 -8.5 -16.5t-3.5 -16.5q0 -33 45 -50.5t45 -29.5q0 -7 -6 -11.5t-16 -4.5h-271q-10 0 -16 4.5t-6 11.5 q0 20 42 27q15 2 23 4q62 15 120 84q7 9 11 14l213 261l-266 313q-37 43 -88 64t-51 30q0 7 6.5 11.5t15.5 4.5h359q9 0 14.5 -4t5.5 -12q0 -10 -35.5 -27t-35.5 -41q0 -7 2.5 -13.5t9.5 -14.5l170 -207l166 197q6 7 9 14.5t3 13.5q0 13 -6 23t-17 16q-13 7 -36 14 q-31 9 -31 25q0 7 6.5 11.5t15.5 4.5h242q10 0 16.5 -4.5t6.5 -11.5q0 -5 -59.5 -35t-112.5 -94z"/>
<glyph glyph-name="y" horiz-adv-x="844" unicode="y" d="M715 666q6 16 9 32t3 31q0 34 -45 54t-45 30q0 7 6.5 11.5t15.5 4.5h218q9 0 15.5 -4.5t6.5 -11.5q0 -14 -29 -25q-21 -7 -32 -14q-22 -14 -42 -43.5t-38 -75.5l-301 -729q-55 -133 -114.5 -183t-154.5 -50q-80 0 -112.5 17.5t-36.5 61.5l-10 140v8q0 12 3.5 17t12.5 6 q11 0 35 -35q11 -15 18 -24q28 -36 66 -53t90 -17q65 0 108 43t68 135l-317 721q-23 51 -71 71.5t-48 28.5q0 7 6.5 11.5t15.5 4.5h324q9 0 14.5 -4t5.5 -12q0 -15 -31 -26q-13 -4 -20 -7q-18 -7 -27.5 -19t-9.5 -28q0 -1 1 -4.5t4 -12.5l229 -532h10z"/>
<glyph glyph-name="z" horiz-adv-x="924" unicode="z" d="M662 752q2 2 4 6t2 8q-1 10 -6.5 15t-16.5 5h-76q-87 0 -153.5 -13.5t-116.5 -41.5q-55 -30 -108.5 -77.5t-65.5 -47.5q-5 0 -8.5 4t-3.5 11q0 3 0.5 5t1.5 3l122 206q6 11 11 15t10 4q1 0 47.5 -12.5t91.5 -12.5h508q4 -3 6 -6.5t2 -5.5t-7 -10q-5 -6 -7 -8l-616 -721 q-4 -4 -6.5 -8.5t-2.5 -8.5q0 -6 4.5 -10t10.5 -4h131q92 0 164 17t125 51q51 33 101 88t60 55q11 0 18 -4.5t7 -11.5q0 -2 -1 -5t-3 -8l-156 -229q-6 -8 -11.5 -12t-10.5 -4q-3 0 -35.5 8t-63.5 8h-571q-5 0 -8.5 4t-3.5 8t2 7.5t6 7.5z"/>
<glyph glyph-name="braceleft" d="M846 1516v-51q-142 -2 -194 -55.5t-52 -209.5v-143q0 -226 -61 -308.5t-226 -113.5q165 -31 226 -113.5t61 -308.5v-143q0 -156 51.5 -208.5t194.5 -54.5v-51h-10q-217 0 -298 73.5t-81 272.5v213q0 158 -59 218t-222 73v60q165 15 223 74t58 216v213q0 200 81 273.5 t298 73.5h10z" unicode="{"/>
<glyph glyph-name="bar" d="M449 1565h126v-2048h-126v2048z" unicode="|"/>
<glyph glyph-name="braceright" d="M178 1516h10q216 0 297.5 -74t81.5 -273v-213q0 -157 58 -216t223 -74v-60q-163 -13 -222 -73t-59 -218v-213q0 -198 -81.5 -272t-297.5 -74h-10v51q143 2 194.5 54.5t51.5 208.5v143q0 226 61 308.5t226 113.5q-165 31 -226 113.5t-61 308.5v143q0 156 -52 209.5 t-194 55.5v51z" unicode="}"/>
<glyph glyph-name="asciitilde" horiz-adv-x="1706" unicode="~" d="M1530 758v-131q-101 -72 -197.5 -108t-189.5 -36q-43 0 -90.5 9t-100.5 26q-30 10 -87 31q-202 72 -302 72q-83 0 -173.5 -37.5t-211.5 -122.5v133q105 73 202 109t185 36q56 0 116.5 -12.5t174.5 -52.5q12 -4 35 -13q164 -59 254 -59q85 0 176 36.5t209 119.5z"/>
<glyph glyph-name="nonbreakingspace" horiz-adv-x="1194" unicode=" "/>
<glyph glyph-name="exclamdown" horiz-adv-x="563" unicode="¡" d="M184 1325q0 39 29 67.5t68 28.5q40 0 68 -27.5t28 -68.5q0 -42 -27 -69t-69 -27q-40 0 -68.5 28t-28.5 68zM401 127v-18q0 -59 -33.5 -96.5t-86.5 -37.5q-54 0 -86.5 37t-32.5 97v18l90 965q1 21 8.5 33t20.5 12q12 0 20.5 -12.5t9.5 -32.5z"/>
<glyph glyph-name="cent" horiz-adv-x="1194" unicode="¢" d="M647 243v-151q0 -12 -11 -20.5t-28 -8.5q-19 0 -28 7.5t-9 23.5v154q-166 21 -258 126.5t-92 274.5q0 174 93.5 297t256.5 164v135q0 13 11 21t28 8q19 0 28 -8t9 -23v-123q108 0 190.5 -34.5t82.5 -65.5q0 -5 -6 -16q-2 -3 -3 -5l-80 -156q-3 -6 -7 -8.5t-11 -3.5 q-9 0 -12.5 5.5t-3.5 19.5q0 5 2 23.5t2 31.5q0 78 -41.5 121t-116.5 43q-115 0 -180.5 -93.5t-65.5 -258.5q0 -182 79 -291.5t210 -109.5q58 0 106.5 23t81.5 67q9 11 22 31q21 34 36 34q8 0 14 -6.5t6 -15.5q0 -73 -91.5 -141t-213.5 -71z"/>
<glyph glyph-name="sterling" horiz-adv-x="1194" unicode="£" d="M410 176q-42 39 -81 57.5t-79 18.5q-50 0 -79.5 -27t-29.5 -73q0 -51 29.5 -81t79.5 -30q45 0 86.5 35t73.5 100zM1044 1178q9 -21 13 -34t4 -20q0 -14 -8.5 -23t-20.5 -9q-26 0 -76 82q-13 21 -20 32q-46 71 -114 108.5t-150 37.5q-105 0 -168.5 -67.5t-63.5 -178.5 q0 -57 23 -127t96 -215h281q20 0 28.5 -6.5t8.5 -22.5q0 -12 -10.5 -19t-28.5 -7h-254q12 -55 18 -101.5t6 -87.5q0 -75 -20 -149t-60 -148q79 -31 141 -46t111 -15q58 0 102 17.5t85 56.5q8 8 22 24q31 37 51 37q15 0 23 -14t8 -39q0 -117 -70.5 -193t-181.5 -76 q-69 0 -150 35.5t-194 116.5q-49 -75 -102 -113.5t-109 -38.5q-76 0 -122 48t-46 127q0 73 46.5 118t121.5 45q34 0 78 -13t102 -42q14 25 20.5 56.5t6.5 76.5q0 84 -20 163.5t-60 154.5h-256q-22 0 -28 5t-7 21q0 14 9.5 21.5t27.5 7.5h215q-49 78 -73.5 149t-24.5 134 q0 151 117.5 250.5t298.5 99.5q36 0 81 -7.5t54 -7.5q22 0 50.5 20.5t41.5 20.5q18 0 34.5 -14t29.5 -41z"/>
<glyph glyph-name="currency" horiz-adv-x="1241" unicode="¤" d="M158 1419l207 -207q60 46 122.5 68.5t133.5 22.5t135.5 -22.5t124.5 -68.5l204 207l72 -73l-205 -205q43 -57 64.5 -121t21.5 -135t-21.5 -135.5t-64.5 -120.5l205 -205l-72 -74l-204 207q-57 -44 -121.5 -66t-138.5 -22t-136.5 21.5t-119.5 66.5l-207 -207l-72 74 l207 205q-44 58 -66 122t-22 134q0 69 22 133.5t66 122.5l-207 205zM623 1200q-130 0 -222 -92t-92 -221q0 -131 91.5 -223.5t222.5 -92.5q129 0 221 93t92 223q0 129 -91.5 221t-221.5 92z"/>
<glyph glyph-name="yen" horiz-adv-x="1194" unicode="¥" d="M172 1214q-35 67 -122 110.5t-87 51.5q0 11 9 16.5t28 6.5h416q17 0 26 -5.5t9 -17.5q-1 -15 -31 -25q-14 -5 -20 -7q-26 -10 -38 -21.5t-12 -26.5q0 -3 1.5 -8t5.5 -13l333 -663h15l274 598q7 15 10.5 28.5t3.5 27.5q0 26 -13 45t-35 28q-10 4 -27 9q-37 11 -37 28 q0 12 8.5 17.5t25.5 5.5h263q18 0 27 -5.5t9 -17.5q0 -8 -69 -41t-98 -96l-156 -332h231q25 0 33 -4t8 -14v-31q0 -9 -8 -12.5t-33 -3.5h-260l-137 -293h397q25 0 33 -4t8 -15v-28q0 -10 -9.5 -14.5t-31.5 -4.5h-397v-342q0 -29 15 -47.5t51 -32.5q14 -6 40 -13 q35 -9 35 -25q0 -11 -9.5 -17t-27.5 -6h-411q-18 0 -27.5 6t-9.5 17q0 16 35 25q26 7 41 13q34 14 49.5 33t15.5 47v342h-401q-24 0 -31.5 4t-7.5 15v28q0 11 7.5 15t31.5 4h389l-150 293h-239q-24 0 -31.5 4t-7.5 14v29q0 10 7.5 14t31.5 4h207z"/>
<glyph glyph-name="brokenbar" d="M449 1432h126v-758h-126v758zM449 408h126v-758h-126v758z" unicode="¦"/>
<glyph glyph-name="section" d="M156 674q0 -62 34.5 -109.5t114.5 -93.5q91 -52 191.5 -82.5t177.5 -30.5q89 0 143.5 44t54.5 114q0 53 -37.5 103t-111.5 94q-86 50 -192 82t-183 32q-81 0 -136.5 -44.5t-55.5 -108.5zM279 864q-84 40 -128.5 101.5t-44.5 138.5q0 137 120.5 227t310.5 90 q162 0 277.5 -71.5t115.5 -163.5q0 -62 -42.5 -102t-109.5 -40q-53 0 -91.5 22.5t-59.5 66.5q56 6 83 29.5t27 66.5q0 69 -57 110t-154 41q-112 0 -184 -59t-72 -150q0 -126 244 -210q57 -20 88 -31q225 -84 305 -157t80 -179q0 -94 -64.5 -165t-183.5 -107 q94 -41 143.5 -108.5t49.5 -154.5q0 -146 -122 -245t-306 -99q-170 0 -285 77t-115 183q0 65 43.5 106.5t110.5 41.5q49 0 87.5 -23t66.5 -69q-56 -6 -85.5 -34t-29.5 -75q0 -67 62 -115.5t151 -48.5q116 0 189 64.5t73 165.5q0 142 -283 241q-49 17 -75 27 q-216 79 -295.5 150.5t-79.5 175.5q0 94 63 168.5t177 113.5z" unicode="§"/>
<glyph glyph-name="dieresis" d="M338 1208q35 0 61.5 -26t26.5 -62q0 -39 -25 -64.5t-63 -25.5t-63 25.5t-25 64.5q0 36 26.5 62t61.5 26zM686 1208q35 0 61.5 -26t26.5 -62q0 -38 -25.5 -64t-62.5 -26q-38 0 -63 25.5t-25 62.5t26 63.5t62 26.5z" unicode="¨"/>
<glyph glyph-name="copyright" horiz-adv-x="1683" unicode="©" d="M844 1382q137 0 266.5 -53.5t226.5 -150.5q98 -97 152.5 -228.5t54.5 -271.5t-53 -268t-154 -230q-98 -100 -225 -152.5t-270 -52.5t-269 52.5t-227 152.5t-154 227t-53 271q0 140 53 268.5t152 229.5q98 99 228 152.5t272 53.5zM844 1303q-123 0 -237.5 -48.5 t-200.5 -136.5q-88 -89 -134.5 -202.5t-46.5 -237.5q0 -125 47 -238.5t136 -201.5q88 -89 198.5 -135t235.5 -46q126 0 236.5 46t197.5 135q88 90 135 203t47 237t-47.5 240.5t-132.5 201.5q-86 87 -200.5 135t-233.5 48zM1120 1096h35l2 -314h-41q-34 137 -104 206t-176 69 q-123 0 -185.5 -94.5t-62.5 -278.5q0 -189 67 -285t199 -96q86 0 156 43t127 131l34 -24q-58 -105 -143 -157t-199 -52q-167 0 -285 123t-118 297q0 186 116 312t285 126q74 0 148 -34t82 -34q27 0 42 14.5t21 47.5z"/>
<glyph glyph-name="ordfeminine" horiz-adv-x="733" unicode="ª" d="M561 1245l49 -329q4 -23 12 -31t27 -8q32 0 50.5 19t23.5 19t7.5 -2.5t2.5 -7.5q0 -32 -35.5 -59t-85.5 -27q-40 0 -68.5 17.5t-47.5 54.5q-37 -46 -87 -68t-116 -22q-98 0 -162.5 52t-64.5 130q0 85 69 143t172 58q33 0 64 -8t63 -25l8 6v6q0 93 -31.5 135.5t-99.5 42.5 q-74 0 -151 -62q-17 -13 -21 -13q-6 0 -11 4.5t-5 9.5q0 9 17 28.5t42 37.5q54 37 102 53t105 16q80 0 118.5 -36.5t53.5 -133.5zM477 988l-12 75q-6 37 -39 58.5t-84 21.5q-65 0 -102 -41t-37 -113q0 -67 37 -106t100 -39q60 0 99.5 35t39.5 88q0 8 -0.5 12.5t-1.5 8.5z "/>
<glyph glyph-name="guillemotleft" horiz-adv-x="887" unicode="«" d="M421 746q5 -3 8 -10t3 -11t-2 -8.5t-6 -9.5l-184 -291l184 -291q4 -5 6 -10t2 -9t-3 -10.5t-7 -9.5l-21 -14q-3 -4 -8.5 -6.5t-9.5 -2.5q-6 0 -12 4.5t-13 12.5l-258 315q-6 8 -8 12.5t-2 8.5t8 15q1 1 2 3l258 318q8 7 14 10.5t11 3.5q3 0 9 -2t9 -4zM779 745 q3 -2 7.5 -9t4.5 -11q-1 -4 -3 -8.5t-6 -10.5l-184 -290l185 -292q3 -4 5 -8.5t3 -9.5q0 -3 -4 -10t-9 -10l-18 -14q-4 -4 -9 -6.5t-10 -2.5q-6 0 -13 4.5t-13 12.5l-258 315q-4 5 -6 10.5t-2 10.5t1.5 8.5t6.5 9.5l258 318q6 6 13.5 10t12.5 4q4 0 9 -1.5t10 -4.5z"/>
<glyph glyph-name="logicalnot" horiz-adv-x="1706" unicode="¬" d="M254 858h1198v-502h-115v385h-1083v117z"/>
<glyph glyph-name="sfthyphen" horiz-adv-x="602" unicode="­" d="M135 460q4 16 13 21.5t34 5.5h211q59 0 94 22q6 3 7 3q3 0 5.5 -1.5t2.5 -4.5t-3 -10q-1 -3 -1 -4l-33 -123q-4 -16 -11.5 -21.5t-33.5 -5.5h-213q-59 0 -93 -22l-5 -3q-6 1 -8 2t-3 5q0 2 3 10q1 2 1 4z"/>
<glyph glyph-name="registered" horiz-adv-x="1683" unicode="®" d="M844 1382q138 0 268.5 -54t228.5 -152q97 -97 150 -228t53 -272q0 -137 -55.5 -267.5t-157.5 -232.5q-99 -99 -224.5 -150t-270.5 -51q-137 0 -263 52.5t-227 152.5t-154 227t-53 271q0 140 53 268.5t152 229.5q98 99 228 152.5t272 53.5zM844 1303q-122 0 -236 -48 t-202 -137t-134.5 -202.5t-46.5 -237.5q0 -127 46.5 -239t136.5 -201q88 -89 198.5 -135t235.5 -46q126 0 236.5 46t197.5 135q88 90 135 203t47 237t-47.5 241.5t-132.5 200.5q-86 87 -200.5 135t-233.5 48zM469 1092h393q147 0 232.5 -54.5t85.5 -146.5q0 -76 -69.5 -124 t-217.5 -75q93 -29 142 -77.5t71 -133.5q6 -22 11 -63q13 -88 59 -88q32 0 49.5 34t17.5 99h43v-12q0 -88 -40.5 -133.5t-119.5 -45.5q-46 0 -78.5 17t-48.5 49q-18 40 -21 113.5t-9 95.5q-20 68 -70.5 100.5t-136.5 32.5h-33v-248q0 -54 26.5 -75.5t98.5 -25.5v-40h-385v40 q72 3 99.5 24.5t27.5 76.5v516q0 55 -26 76t-101 25v43zM729 719q16 -1 32 -1.5t34 -0.5q112 0 173.5 45.5t61.5 128.5q0 73 -53 117.5t-143 44.5q-52 0 -78.5 -18.5t-26.5 -53.5v-262z"/>
<glyph glyph-name="macron" d="M256 1174h512v-109h-512v109z" unicode="¯"/>
<glyph glyph-name="degree" horiz-adv-x="674" unicode="°" d="M338 1454q117 0 200 -83t83 -200q0 -116 -83.5 -199t-201.5 -83t-199.5 82t-81.5 200q0 119 82.5 201t200.5 82zM338 1372q-84 0 -143.5 -58.5t-59.5 -142.5t59.5 -143t143.5 -59t142.5 59t58.5 143t-58.5 142.5t-142.5 58.5z"/>
<glyph glyph-name="plusminus" horiz-adv-x="1706" unicode="±" d="M795 1180h118v-344h539v-117h-539v-344h-118v344h-541v117h541v344zM254 158h1198v-117h-1198v117z"/>
<glyph glyph-name="twosuperior" horiz-adv-x="788" unicode="²" d="M129 662l6 -13h406q27 0 53 8t49 23q13 9 26.5 26t20.5 17q6 0 9 -1.5t3 -4.5q0 -2 -0.5 -4.5t-3.5 -10.5l-61 -143h-600l-6 14q26 66 78 127t135 121q56 41 123.5 87.5t77.5 54.5q5 4 14 12q72 62 92 98q13 25 20 54t7 61q0 91 -60 144.5t-162 53.5q-82 0 -140 -41.5 t-58 -99.5q0 -40 29.5 -66t76.5 -26q28 0 51 11t41 34q12 -11 17.5 -24.5t5.5 -28.5q0 -41 -37.5 -68.5t-93.5 -27.5q-73 0 -119.5 44.5t-46.5 114.5q0 90 84 147.5t217 57.5q150 0 239 -67t89 -179q0 -145 -326 -314l-2 -1q-109 -54 -165.5 -97.5t-88.5 -92.5z"/>
<glyph glyph-name="threesuperior" horiz-adv-x="788" unicode="³" d="M698 1399l13 -25l-385 -303q3 0 11 1q40 3 60 3q137 0 225.5 -73t88.5 -185q0 -124 -103.5 -198t-277.5 -74q-127 0 -206 50t-79 128q0 54 41.5 90.5t103.5 36.5q40 0 65.5 -18.5t25.5 -47.5q0 -12 -5 -21t-15 -17q-22 10 -39 15t-32 5q-33 0 -55 -20.5t-22 -51.5 q0 -54 58.5 -89.5t152.5 -35.5q120 0 185.5 60.5t65.5 171.5q0 109 -55.5 174t-148.5 65q-43 0 -90 -11q-14 -3 -17 -3q-9 0 -13.5 3t-4.5 9q0 3 1.5 5.5t8.5 9.5l334 260h-279q-59 0 -91 -3.5t-54 -11.5q-26 -8 -49.5 -21t-26.5 -13q-5 0 -8.5 3t-3.5 7q0 2 3.5 6t9.5 9 l120 114q4 4 8.5 6t9.5 2q1 0 5 -1q29 -11 71 -11h393z"/>
<glyph glyph-name="acute" d="M709 1200l-273 -235h-49l242 305q23 28 39 39.5t32 11.5q23 0 39.5 -16t16.5 -37q0 -15 -9 -28.5t-38 -39.5z" unicode="´"/>
<glyph glyph-name="mu" horiz-adv-x="1120" unicode="µ" d="M164 193q-27 -136 -52 -339q-34 -272 -112 -272q-37 0 -58.5 23.5t-21.5 64.5q0 40 64.5 273.5t105.5 427.5l109 514h147l-104 -492q-6 -30 -9.5 -58.5t-3.5 -53.5q0 -83 42 -129t118 -46q98 0 163.5 68.5t94.5 200.5l111 510h149l-114 -531q-13 -59 -17 -87.5t-4 -49.5 q0 -48 26 -78t66 -30q35 0 65.5 18t51.5 51t41 93.5t39 60.5q12 0 19 -10t7 -27q0 -25 -11 -66.5t-29 -83.5q-38 -82 -95 -122.5t-135 -40.5q-68 0 -108.5 51t-40.5 139v23q-46 -110 -116 -164t-165 -54q-96 0 -152.5 54.5t-70.5 161.5z"/>
<glyph glyph-name="paragraph" d="M948 1479v-78h-125v-1401h-94v1401h-182v-1401h-96v782q-173 8 -274 102.5t-101 245.5q0 157 107.5 253t285.5 96h479z" unicode="¶"/>
<glyph glyph-name="periodcentered" horiz-adv-x="598" unicode="·" d="M207 717q0 38 27.5 65t64.5 27q38 0 65 -27t27 -65t-27 -65t-65 -27q-36 0 -64 28t-28 64z"/>
<glyph glyph-name="cedilla" d="M483 0h56v-121q10 2 22 3t33 1q81 0 127.5 -43t46.5 -119q0 -72 -57 -116.5t-150 -44.5q-54 0 -123 16.5t-153 50.5l26 66q65 -32 124.5 -50t96.5 -18q64 0 95.5 25t31.5 76q0 43 -31 67.5t-87 24.5q-13 0 -27.5 -1.5t-29.5 -4.5z" unicode="¸"/>
<glyph glyph-name="onesuperior" horiz-adv-x="788" unicode="¹" d="M338 1225q0 29 -18 42t-60 13h-20q-16 0 -24.5 5t-8.5 13q0 9 21 20q5 2 7 3l207 88q4 2 9 2t7.5 -3.5t2.5 -10.5v-754q0 -16 10 -27t35 -20q8 -3 24 -7q25 -7 25 -16q0 -6 -6 -10t-19 -4h-262q-12 0 -18 3.5t-6 10.5q0 10 25 16q17 4 26 7q23 9 33 20t10 27v582z"/>
<glyph glyph-name="ordmasculine" horiz-adv-x="768" unicode="º" d="M379 1415q68 0 131 -28t113 -80q45 -50 69.5 -107.5t24.5 -114.5q0 -121 -96 -202.5t-240 -81.5q-145 0 -236.5 87.5t-91.5 223.5q0 132 91.5 217.5t234.5 85.5zM322 1376q-70 0 -111 -46t-41 -126q0 -53 16 -110.5t43 -104.5q44 -76 96 -112.5t115 -36.5q70 0 110 45 t40 125q0 73 -29 146t-84 136q-35 40 -76.5 62t-78.5 22z"/>
<glyph glyph-name="guillemotright" horiz-adv-x="887" unicode="»" d="M466 745l20 15q3 2 9 4t9 2q6 0 13 -4t13 -10l256 -318q6 -7 8 -11t3 -7q0 -3 -3 -8.5t-7 -11.5l-257 -316q-6 -8 -13 -12.5t-13 -4.5q-5 0 -10 2.5t-9 6.5l-18 14q-4 3 -8 10t-4 10q0 5 2 9.5t6 9.5l184 291l-184 290q-2 4 -4 7q-4 7 -4 12q0 4 4 11t7 9zM108 745l21 15 q5 3 9.5 4.5t6.5 1.5q6 0 13 -4t14 -10l258 -318q6 -8 8 -11.5t2 -6.5t-2.5 -8.5t-7.5 -12.5l-258 -315q-6 -8 -13 -12.5t-14 -4.5q-3 0 -7.5 2.5t-8.5 6.5l-21 14q-4 3 -8 10t-4 10q0 4 2 8.5t6 9.5l187 292l-186 290q-2 3 -4 7q-5 8 -5 12t4 10.5t8 9.5z"/>
<glyph glyph-name="onequarter" horiz-adv-x="1847" unicode="¼" d="M324 1237q0 27 -18 39t-56 12h-21q-15 0 -22.5 4.5t-7.5 12.5q0 6 5 10t21 10l197 84q4 0 8 2q5 0 8.5 -3.5t3.5 -10.5v-703q0 -18 9.5 -28t32.5 -17q8 -3 23 -7q23 -6 23 -15q0 -6 -6 -9.5t-16 -3.5h-252q-12 1 -17 3.5t-6 9.5q1 9 24 15q15 4 23 7q24 7 34 17.5 t10 27.5v543zM1442 1421l-950 -1446h-84l950 1446h84zM1665 797q11 -1 14.5 -4t3.5 -13v-456q1 -16 6 -21.5t19 -5.5h45q15 0 20 -3.5t5 -12.5v-35q0 -8 -4.5 -11.5t-16.5 -3.5h-53q-11 0 -15.5 -5t-5.5 -17v-129q1 -18 10 -28t31 -17q10 -4 24 -7q23 -6 24 -16 q-1 -6 -6.5 -9t-16.5 -3h-238q-11 0 -16.5 3t-5.5 9q0 9 22 15q17 5 25 8q21 6 30 16.5t9 28.5v133q0 12 -3.5 15t-12.5 3h-398q-12 1 -15 3.5t-3 11.5v43q0 9 2 14.5t8 11.5l408 470q5 6 11 9t17 3h76zM1579 750l-391 -453h389z"/>
<glyph glyph-name="onehalf" horiz-adv-x="1847" unicode="½" d="M324 1237q0 27 -18 39t-56 12h-21q-15 0 -22.5 4.5t-7.5 12.5q0 6 5 10t21 10l197 84q4 0 8 2q5 0 8.5 -3.5t3.5 -10.5v-703q0 -18 9.5 -28t32.5 -17q8 -3 23 -7q23 -6 23 -15q0 -6 -6 -9.5t-16 -3.5h-252q-12 1 -17 3.5t-6 9.5q1 9 24 15q15 4 23 7q24 7 34 17.5 t10 27.5v543zM1442 1421l-950 -1446h-84l950 1446h84zM1219 94l6 -10h387q27 0 52.5 7.5t45.5 21.5q11 8 24 23.5t21 15.5q5 -1 7.5 -2t2.5 -3q0 -1 -0.5 -3.5t-3.5 -10.5l-57 -133h-571l-9 12q24 61 73.5 117.5t129.5 114.5q52 37 118 81t75 52q5 4 15 13q67 57 87 91 q12 22 18.5 48.5t6.5 58.5q0 84 -57.5 134t-153.5 50q-79 0 -134 -38.5t-55 -92.5q0 -39 28 -63.5t73 -24.5q26 0 48.5 11t39.5 32q10 -12 15 -24t5 -25q0 -38 -35.5 -64t-89.5 -26q-69 0 -113 42t-44 107q0 83 80.5 137t207.5 54q143 0 227.5 -62.5t84.5 -167.5 q0 -75 -53 -132t-261 -161q-101 -49 -155.5 -90.5t-85.5 -89.5z"/>
<glyph glyph-name="threequarters" horiz-adv-x="1847" unicode="¾" d="M666 1397l12 -23l-367 -282h6q44 4 62 4q130 0 214.5 -67.5t84.5 -172.5q0 -116 -98.5 -186t-264.5 -70q-120 0 -196 47.5t-76 120.5q0 50 39.5 83.5t99.5 33.5q39 0 62.5 -17.5t23.5 -44.5q0 -10 -4 -18t-15 -16q-18 9 -35 13.5t-32 4.5q-33 0 -53 -18t-20 -48 q0 -51 56 -84.5t144 -33.5q115 0 177.5 56.5t62.5 160.5q0 102 -53 162.5t-142 60.5q-34 0 -68 -6l-34 -6q-8 0 -12 2.5t-4 7.5q0 2 1.5 4.5t8.5 9.5l317 242h-266q-56 0 -87 -3t-53 -10q-23 -8 -46 -20t-25 -12q-4 0 -7 2.5t-3 5.5t2.5 7.5t7.5 8.5l115 107q4 4 8 6t8 2 q1 0 6 -2q30 -12 68 -12h375zM1440 1421l-951 -1446h-83l950 1446h84zM1663 797q11 -1 14.5 -4t3.5 -13v-456q1 -16 6 -21.5t19 -5.5h45q15 0 20 -3.5t5 -12.5v-35q0 -8 -4.5 -11.5t-16.5 -3.5h-53q-11 0 -15.5 -5t-5.5 -17v-129q1 -18 10 -28t31 -17q10 -4 24 -7 q23 -6 23 -16q0 -6 -6 -9t-16 -3h-238q-11 0 -16.5 3t-5.5 9q0 10 23 16q16 4 24 7q21 6 30 16.5t9 28.5v133q0 12 -3.5 15t-13.5 3h-397q-12 1 -15 3.5t-3 11.5v43q0 9 2 14.5t8 11.5l408 470q5 6 11 9t17 3h76zM1577 750l-391 -453h389z"/>
<glyph glyph-name="questiondown" horiz-adv-x="1020" unicode="¿" d="M582 295q-10 11 -14.5 24.5t-4.5 30.5q0 58 41 88.5t117 30.5q83 0 138.5 -60.5t55.5 -152.5q0 -118 -117.5 -199.5t-297.5 -81.5q-182 0 -304 105t-122 258q0 61 22 119.5t64 109.5q52 66 162 148.5t143 111.5q51 47 72.5 99.5t21.5 158.5q0 27 6.5 39.5t20.5 12.5 q24 0 33.5 -26t9.5 -105t-29 -147t-123 -179q-15 -18 -45 -51q-143 -160 -143 -289q0 -141 77 -227t203 -86q100 0 165 48.5t65 121.5q0 49 -36 79.5t-95 30.5q-19 0 -40.5 -3t-45.5 -9zM678 1331q0 -37 -27.5 -64.5t-64.5 -27.5q-40 0 -66 26t-26 66q0 37 27.5 63.5 t64.5 26.5q35 0 63.5 -27.5t28.5 -62.5z"/>
<glyph glyph-name="Agrave" horiz-adv-x="1327" unicode="À" d="M588 1229l-291 -766h582zM721 1421l463 -1212q19 -51 42.5 -87.5t49.5 -53.5q14 -11 43 -21t29 -24q-1 -12 -10.5 -17.5t-26.5 -5.5h-365q-17 0 -26.5 5.5t-10.5 17.5q0 15 32 25q13 4 21 7q28 10 39 21t11 26q0 5 -3 16q-1 3 -1 5l-109 289h-623l-83 -224q-5 -9 -7 -22 t-2 -31q0 -29 17 -47t56 -31l21 -6q46 -12 46 -31q0 -10 -9 -15t-28 -5h-271q-17 0 -26.5 5.5t-9.5 17.5q0 6 63 37.5t88 99.5l479 1261h111zM547 1839l242 -305h-49l-273 235q-29 26 -38 39.5t-9 28.5q0 21 16.5 37t39.5 16q16 0 32 -11.5t39 -39.5z"/>
<glyph glyph-name="Aacute" horiz-adv-x="1327" unicode="Á" d="M588 1229l-291 -766h582zM721 1421l463 -1212q19 -51 42.5 -87.5t49.5 -53.5q14 -11 43 -21t29 -24q-1 -12 -10.5 -17.5t-26.5 -5.5h-365q-17 0 -26.5 5.5t-10.5 17.5q0 15 32 25q13 4 21 7q28 10 39 21t11 26q0 5 -3 16q-1 3 -1 5l-109 289h-623l-83 -224q-5 -9 -7 -22 t-2 -31q0 -29 17 -47t56 -31l21 -6q46 -12 46 -31q0 -10 -9 -15t-28 -5h-271q-17 0 -26.5 5.5t-9.5 17.5q0 6 63 37.5t88 99.5l479 1261h111zM861 1769l-273 -235h-49l242 305q23 28 39 39.5t32 11.5q23 0 39.5 -16t16.5 -37q0 -15 -9 -28.5t-38 -39.5z"/>
<glyph glyph-name="Acircumflex" horiz-adv-x="1327" unicode="Â" d="M588 1229l-291 -766h582zM721 1421l463 -1212q19 -51 42.5 -87.5t49.5 -53.5q14 -11 43 -21t29 -24q-1 -12 -10.5 -17.5t-26.5 -5.5h-365q-17 0 -26.5 5.5t-10.5 17.5q0 15 32 25q13 4 21 7q28 10 39 21t11 26q0 5 -3 16q-1 3 -1 5l-109 289h-623l-83 -224q-5 -9 -7 -22 t-2 -31q0 -29 17 -47t56 -31l21 -6q46 -12 46 -31q0 -10 -9 -15t-28 -5h-271q-17 0 -26.5 5.5t-9.5 17.5q0 6 63 37.5t88 99.5l479 1261h111zM617 1882h94l223 -348h-47l-223 231l-223 -231h-47z"/>
<glyph glyph-name="Atilde" horiz-adv-x="1327" unicode="Ã" d="M588 1229l-291 -766h582zM721 1421l463 -1212q19 -51 42.5 -87.5t49.5 -53.5q14 -11 43 -21t29 -24q-1 -12 -10.5 -17.5t-26.5 -5.5h-365q-17 0 -26.5 5.5t-10.5 17.5q0 15 32 25q13 4 21 7q28 10 39 21t11 26q0 5 -3 16q-1 3 -1 5l-109 289h-623l-83 -224q-5 -9 -7 -22 t-2 -31q0 -29 17 -47t56 -31l21 -6q46 -12 46 -31q0 -10 -9 -15t-28 -5h-271q-17 0 -26.5 5.5t-9.5 17.5q0 6 63 37.5t88 99.5l479 1261h111zM906 1802h43q-19 -90 -63.5 -137t-110.5 -47q-15 0 -33 3t-45 11l-117 37q-19 5 -35.5 8.5t-23.5 3.5q-42 0 -64 -20.5t-35 -69.5 h-43q16 86 60.5 134t109.5 48q20 0 42.5 -3.5t47.5 -10.5l117 -37q14 -4 27.5 -6t27.5 -2q38 0 61 21t34 67z"/>
<glyph glyph-name="Adieresis" horiz-adv-x="1327" unicode="Ä" d="M588 1229l-291 -766h582zM721 1421l463 -1212q19 -51 42.5 -87.5t49.5 -53.5q14 -11 43 -21t29 -24q-1 -12 -10.5 -17.5t-26.5 -5.5h-365q-17 0 -26.5 5.5t-10.5 17.5q0 15 32 25q13 4 21 7q28 10 39 21t11 26q0 5 -3 16q-1 3 -1 5l-109 289h-623l-83 -224q-5 -9 -7 -22 t-2 -31q0 -29 17 -47t56 -31l21 -6q46 -12 46 -31q0 -10 -9 -15t-28 -5h-271q-17 0 -26.5 5.5t-9.5 17.5q0 6 63 37.5t88 99.5l479 1261h111zM490 1777q35 0 61.5 -26t26.5 -62q0 -39 -25 -64.5t-63 -25.5t-63 25.5t-25 64.5q0 36 26.5 62t61.5 26zM838 1777q35 0 61.5 -26 t26.5 -62q0 -38 -25.5 -64t-62.5 -26q-38 0 -63 25.5t-25 62.5t26 63.5t62 26.5z"/>
<glyph glyph-name="Aring" horiz-adv-x="1327" unicode="Å" d="M588 1229l-291 -766h582zM721 1421l463 -1212q19 -51 42.5 -87.5t49.5 -53.5q14 -11 43 -21t29 -24q-1 -12 -10.5 -17.5t-26.5 -5.5h-365q-17 0 -26.5 5.5t-10.5 17.5q0 15 32 25q13 4 21 7q28 10 39 21t11 26q0 5 -3 16q-1 3 -1 5l-109 289h-623l-83 -224q-5 -9 -7 -22 t-2 -31q0 -29 17 -47t56 -31l21 -6q46 -12 46 -31q0 -10 -9 -15t-28 -5h-271q-17 0 -26.5 5.5t-9.5 17.5q0 6 63 37.5t88 99.5l479 1261h111zM664 1956q98 0 165.5 -67.5t67.5 -166.5q0 -98 -67.5 -165.5t-165.5 -67.5q-99 0 -166.5 67.5t-67.5 165.5q0 99 67.5 166.5 t166.5 67.5zM664 1874q-64 0 -108 -44t-44 -108t43.5 -107.5t108.5 -43.5q64 0 107.5 43.5t43.5 107.5q0 63 -44 107.5t-107 44.5z"/>
<glyph glyph-name="AE" horiz-adv-x="2048" unicode="Æ" d="M954 1352l-510 -793h531v793h-21zM975 508h-563l-168 -264q-21 -32 -33 -65t-12 -56t12.5 -40t34.5 -24q11 -3 29 -8q44 -12 44 -31q0 -10 -8.5 -15t-27.5 -5h-277q-17 0 -26 5.5t-9 17.5q0 4 62 44t108 111l639 987q16 25 24.5 50t8.5 47q0 53 -50 79t-50 35 q0 10 9.5 16.5t25.5 6.5h841q44 0 78 2.5t63 7.5l170 -247q6 -9 8.5 -15.5t2.5 -9.5q0 -7 -6 -12t-15 -5q-18 0 -56 41t-60 60q-86 69 -180 100t-218 31h-157q-25 -1 -33 -8.5t-8 -28.5v-424q0 -15 9 -24t23 -9h197q44 0 68 8t38 26q7 9 15 24q14 26 31 26q8 0 15 -4.5 t15 -15.5l133 -193q1 -1 3 -5q6 -11 6 -15q-1 -6 -7.5 -10.5t-13.5 -4.5q-3 0 -46 28t-89 52q-31 16 -69.5 23.5t-100.5 7.5h-191q-18 0 -27 -7.5t-9 -23.5v-690q0 -14 9.5 -20t31.5 -7h198q150 0 236.5 17.5t161.5 56.5q68 37 134.5 96.5t78.5 59.5q10 0 16 -5.5t6 -13.5 q0 -6 -3 -13.5t-7 -12.5l-170 -242h-1000q-17 0 -26.5 5.5t-9.5 17.5q0 16 35 25q25 7 40 13q35 14 50.5 33t15.5 47v367z"/>
<glyph glyph-name="Ccedilla" horiz-adv-x="1298" unicode="Ç" d="M1178 1148l3 -10.5t1 -4.5q0 -11 -8.5 -18t-20.5 -7q-20 0 -55 49q-14 21 -23 33q-75 100 -145.5 143t-157.5 43q-197 0 -318.5 -196.5t-121.5 -522.5q0 -281 128 -442.5t349 -161.5q104 0 173 35t128 117q19 27 42 90t50 63q9 0 16 -9t7 -21q0 -25 -15.5 -66t-42.5 -86 q-56 -97 -159.5 -149t-239.5 -52q-148 0 -280.5 63t-233.5 181q-80 93 -120 205t-40 240q0 122 33.5 236.5t99.5 217.5q96 148 232.5 225.5t300.5 77.5q47 0 112 -7t82 -7q20 0 51.5 6t43.5 6q10 0 16.5 -4t9.5 -12zM702 0h56v-121q10 2 22 3t33 1q81 0 127.5 -43t46.5 -119 q0 -72 -57 -116.5t-150 -44.5q-54 0 -123 16.5t-153 50.5l26 66q65 -32 124.5 -50t96.5 -18q64 0 95.5 25t31.5 76q0 43 -31 67.5t-87 24.5q-13 0 -27.5 -1.5t-29.5 -4.5z"/>
<glyph glyph-name="Egrave" horiz-adv-x="1323" unicode="È" d="M815 1399h47q42 0 76 2.5t63 7.5l170 -247q6 -9 8.5 -15.5t2.5 -9.5q0 -7 -6 -12t-15 -5q-18 0 -54.5 40.5t-59.5 60.5q-86 68 -181 99.5t-219 31.5h-166q-24 -1 -32.5 -9t-8.5 -28v-424q0 -15 9.5 -24t23.5 -9h207q44 0 68 8t38 26q7 9 15 25q12 25 28 25q10 0 18 -5 t15 -15l131 -193q1 -2 3 -5q5 -11 5 -15q0 -5 -5.5 -10t-12.5 -5q-3 0 -46 28t-89 52q-31 16 -70 23.5t-102 7.5h-199q-18 0 -27.5 -7.5t-9.5 -23.5v-690q1 -14 10.5 -20t30.5 -7h207q150 0 236.5 17.5t160.5 56.5q69 37 135.5 96.5t77.5 59.5t18 -5.5t7 -13.5 q0 -4 -3.5 -12t-8.5 -14l-170 -242h-1008q-17 0 -26.5 5.5t-10.5 17.5q0 16 36 25q25 7 40 13q35 14 50.5 33t15.5 47v1116q0 29 -13 47t-44 33q-13 6 -34 12q-36 11 -36 27q0 11 8.5 17t23.5 6h672zM545 1839l242 -305h-49l-273 235q-29 26 -38 39.5t-9 28.5q0 21 16.5 37 t39.5 16q16 0 32 -11.5t39 -39.5z"/>
<glyph glyph-name="Eacute" horiz-adv-x="1323" unicode="É" d="M815 1399h47q42 0 76 2.5t63 7.5l170 -247q6 -9 8.5 -15.5t2.5 -9.5q0 -7 -6 -12t-15 -5q-18 0 -54.5 40.5t-59.5 60.5q-86 68 -181 99.5t-219 31.5h-166q-24 -1 -32.5 -9t-8.5 -28v-424q0 -15 9.5 -24t23.5 -9h207q44 0 68 8t38 26q7 9 15 25q12 25 28 25q10 0 18 -5 t15 -15l131 -193q1 -2 3 -5q5 -11 5 -15q0 -5 -5.5 -10t-12.5 -5q-3 0 -46 28t-89 52q-31 16 -70 23.5t-102 7.5h-199q-18 0 -27.5 -7.5t-9.5 -23.5v-690q1 -14 10.5 -20t30.5 -7h207q150 0 236.5 17.5t160.5 56.5q69 37 135.5 96.5t77.5 59.5t18 -5.5t7 -13.5 q0 -4 -3.5 -12t-8.5 -14l-170 -242h-1008q-17 0 -26.5 5.5t-10.5 17.5q0 16 36 25q25 7 40 13q35 14 50.5 33t15.5 47v1116q0 29 -13 47t-44 33q-13 6 -34 12q-36 11 -36 27q0 11 8.5 17t23.5 6h672zM859 1769l-273 -235h-49l242 305q23 28 39 39.5t32 11.5q23 0 39.5 -16 t16.5 -37q0 -15 -9 -28.5t-38 -39.5z"/>
<glyph glyph-name="Ecircumflex" horiz-adv-x="1323" unicode="Ê" d="M815 1399h47q42 0 76 2.5t63 7.5l170 -247q6 -9 8.5 -15.5t2.5 -9.5q0 -7 -6 -12t-15 -5q-18 0 -54.5 40.5t-59.5 60.5q-86 68 -181 99.5t-219 31.5h-166q-24 -1 -32.5 -9t-8.5 -28v-424q0 -15 9.5 -24t23.5 -9h207q44 0 68 8t38 26q7 9 15 25q12 25 28 25q10 0 18 -5 t15 -15l131 -193q1 -2 3 -5q5 -11 5 -15q0 -5 -5.5 -10t-12.5 -5q-3 0 -46 28t-89 52q-31 16 -70 23.5t-102 7.5h-199q-18 0 -27.5 -7.5t-9.5 -23.5v-690q1 -14 10.5 -20t30.5 -7h207q150 0 236.5 17.5t160.5 56.5q69 37 135.5 96.5t77.5 59.5t18 -5.5t7 -13.5 q0 -4 -3.5 -12t-8.5 -14l-170 -242h-1008q-17 0 -26.5 5.5t-10.5 17.5q0 16 36 25q25 7 40 13q35 14 50.5 33t15.5 47v1116q0 29 -13 47t-44 33q-13 6 -34 12q-36 11 -36 27q0 11 8.5 17t23.5 6h672zM615 1882h94l223 -348h-47l-223 231l-223 -231h-47z"/>
<glyph glyph-name="Edieresis" horiz-adv-x="1323" unicode="Ë" d="M815 1399h47q42 0 76 2.5t63 7.5l170 -247q6 -9 8.5 -15.5t2.5 -9.5q0 -7 -6 -12t-15 -5q-18 0 -54.5 40.5t-59.5 60.5q-86 68 -181 99.5t-219 31.5h-166q-24 -1 -32.5 -9t-8.5 -28v-424q0 -15 9.5 -24t23.5 -9h207q44 0 68 8t38 26q7 9 15 25q12 25 28 25q10 0 18 -5 t15 -15l131 -193q1 -2 3 -5q5 -11 5 -15q0 -5 -5.5 -10t-12.5 -5q-3 0 -46 28t-89 52q-31 16 -70 23.5t-102 7.5h-199q-18 0 -27.5 -7.5t-9.5 -23.5v-690q1 -14 10.5 -20t30.5 -7h207q150 0 236.5 17.5t160.5 56.5q69 37 135.5 96.5t77.5 59.5t18 -5.5t7 -13.5 q0 -4 -3.5 -12t-8.5 -14l-170 -242h-1008q-17 0 -26.5 5.5t-10.5 17.5q0 16 36 25q25 7 40 13q35 14 50.5 33t15.5 47v1116q0 29 -13 47t-44 33q-13 6 -34 12q-36 11 -36 27q0 11 8.5 17t23.5 6h672zM488 1777q35 0 61.5 -26t26.5 -62q0 -39 -25 -64.5t-63 -25.5t-63 25.5 t-25 64.5q0 36 26.5 62t61.5 26zM836 1777q35 0 61.5 -26t26.5 -62q0 -38 -25.5 -64t-62.5 -26q-38 0 -63 25.5t-25 62.5t26 63.5t62 26.5z"/>
<glyph glyph-name="Igrave" horiz-adv-x="707" unicode="Ì" d="M553 1399q16 0 25.5 -6.5t9.5 -16.5q0 -16 -37 -27q-20 -6 -32 -11q-34 -16 -46 -34t-12 -47v-1116q0 -30 14 -48t49 -32q15 -6 41 -13q35 -9 35 -25q0 -11 -9.5 -17t-27.5 -6h-420q-17 0 -26.5 5.5t-10.5 17.5q0 16 36 25q25 7 40 13q34 13 49 32t15 48v1116 q0 29 -13 47t-44 33q-13 6 -34 12q-36 11 -36 27q0 10 9.5 16.5t25.5 6.5h399zM237 1839l242 -305h-49l-273 235q-29 26 -38 39.5t-9 28.5q0 21 16.5 37t39.5 16q16 0 32 -11.5t39 -39.5z"/>
<glyph glyph-name="Iacute" horiz-adv-x="707" unicode="Í" d="M553 1399q16 0 25.5 -6.5t9.5 -16.5q0 -16 -37 -27q-20 -6 -32 -11q-34 -16 -46 -34t-12 -47v-1116q0 -30 14 -48t49 -32q15 -6 41 -13q35 -9 35 -25q0 -11 -9.5 -17t-27.5 -6h-420q-17 0 -26.5 5.5t-10.5 17.5q0 16 36 25q25 7 40 13q34 13 49 32t15 48v1116 q0 29 -13 47t-44 33q-13 6 -34 12q-36 11 -36 27q0 10 9.5 16.5t25.5 6.5h399zM551 1769l-273 -235h-49l242 305q23 28 39 39.5t32 11.5q23 0 39.5 -16t16.5 -37q0 -15 -9 -28.5t-38 -39.5z"/>
<glyph glyph-name="Icircumflex" horiz-adv-x="707" unicode="Î" d="M553 1399q16 0 25.5 -6.5t9.5 -16.5q0 -16 -37 -27q-20 -6 -32 -11q-34 -16 -46 -34t-12 -47v-1116q0 -30 14 -48t49 -32q15 -6 41 -13q35 -9 35 -25q0 -11 -9.5 -17t-27.5 -6h-420q-17 0 -26.5 5.5t-10.5 17.5q0 16 36 25q25 7 40 13q34 13 49 32t15 48v1116 q0 29 -13 47t-44 33q-13 6 -34 12q-36 11 -36 27q0 10 9.5 16.5t25.5 6.5h399zM307 1882h94l223 -348h-47l-223 231l-223 -231h-47z"/>
<glyph glyph-name="Idieresis" horiz-adv-x="707" unicode="Ï" d="M553 1399q16 0 25.5 -6.5t9.5 -16.5q0 -16 -37 -27q-20 -6 -32 -11q-34 -16 -46 -34t-12 -47v-1116q0 -30 14 -48t49 -32q15 -6 41 -13q35 -9 35 -25q0 -11 -9.5 -17t-27.5 -6h-420q-17 0 -26.5 5.5t-10.5 17.5q0 16 36 25q25 7 40 13q34 13 49 32t15 48v1116 q0 29 -13 47t-44 33q-13 6 -34 12q-36 11 -36 27q0 10 9.5 16.5t25.5 6.5h399zM180 1777q35 0 61.5 -26t26.5 -62q0 -39 -25 -64.5t-63 -25.5t-63 25.5t-25 64.5q0 36 26.5 62t61.5 26zM528 1777q35 0 61.5 -26t26.5 -62q0 -38 -25.5 -64t-62.5 -26q-38 0 -63 25.5t-25 62.5 t26 63.5t62 26.5z"/>
<glyph glyph-name="Eth" horiz-adv-x="1442" unicode="Ð" d="M442 680v-578q0 -38 15 -46.5t65 -8.5q289 0 437.5 147t148.5 433q0 321 -170 515.5t-444 194.5q-27 0 -39.5 -10.5t-12.5 -34.5v-547h275q18 0 27.5 -8t9.5 -24q0 -19 -7 -26t-28 -7h-277zM279 1399q254 0 441.5 -51t323.5 -156q142 -110 222 -259.5t80 -303.5 q0 -169 -90.5 -309t-249.5 -220q-101 -49 -211.5 -74.5t-225.5 -25.5h-434q-18 0 -28.5 6t-10.5 17q0 15 37 25q26 7 41 13q34 13 49 32t15 48v539h-213q-21 0 -28 7t-7 26q0 16 9.5 24t27.5 8h211v512q0 29 -13 47t-44 33q-13 6 -34 12q-36 11 -36 27q0 10 9.5 16.5 t24.5 6.5h134z"/>
<glyph glyph-name="Ntilde" horiz-adv-x="1407" unicode="Ñ" d="M268 141q0 -30 14.5 -48t49.5 -32q15 -6 40 -13q36 -9 36 -25q-1 -12 -10.5 -17.5t-26.5 -5.5h-254q-18 0 -27.5 6t-9.5 17q0 16 35 25q26 7 41 13q34 14 49.5 33t15.5 47v1116q0 29 -12.5 47t-44.5 33q-13 6 -33 12q-37 11 -37 27q0 11 9 17t24 6h289l743 -1028v886 q0 29 -13 47t-44 33q-13 6 -33 12q-37 11 -37 27q0 10 9.5 16.5t25.5 6.5h233q16 0 25.5 -6.5t9.5 -16.5q0 -16 -36 -27q-21 -6 -34 -12q-32 -15 -44.5 -33t-12.5 -47v-1282h-49v25q0 22 -8 42.5t-37 59.5l-846 1168v-1129zM947 1802h43q-19 -90 -63.5 -137t-110.5 -47 q-15 0 -33 3t-45 11l-117 37q-19 5 -35.5 8.5t-23.5 3.5q-42 0 -64 -20.5t-35 -69.5h-43q16 86 60.5 134t109.5 48q20 0 42.5 -3.5t47.5 -10.5l117 -37q14 -4 27.5 -6t27.5 -2q38 0 61 21t34 67z"/>
<glyph glyph-name="Ograve" horiz-adv-x="1565" unicode="Ò" d="M782 1421q135 0 259 -60t229 -177q100 -115 150 -246t50 -281q0 -316 -183.5 -499t-504.5 -183q-318 0 -503 180.5t-185 491.5q0 116 29 221.5t86 198.5q104 169 254 261.5t319 92.5zM1235 709q0 297 -126.5 481t-326.5 184q-199 0 -325.5 -184t-126.5 -481 q0 -322 120.5 -503t331.5 -181q212 0 332.5 181t120.5 503zM665 1839l242 -305h-49l-273 235q-29 26 -38 39.5t-9 28.5q0 21 16.5 37t39.5 16q16 0 32 -11.5t39 -39.5z"/>
<glyph glyph-name="Oacute" horiz-adv-x="1565" unicode="Ó" d="M782 1421q135 0 259 -60t229 -177q100 -115 150 -246t50 -281q0 -316 -183.5 -499t-504.5 -183q-318 0 -503 180.5t-185 491.5q0 116 29 221.5t86 198.5q104 169 254 261.5t319 92.5zM1235 709q0 297 -126.5 481t-326.5 184q-199 0 -325.5 -184t-126.5 -481 q0 -322 120.5 -503t331.5 -181q212 0 332.5 181t120.5 503zM979 1769l-273 -235h-49l242 305q23 28 39 39.5t32 11.5q23 0 39.5 -16t16.5 -37q0 -15 -9 -28.5t-38 -39.5z"/>
<glyph glyph-name="Ocircumflex" horiz-adv-x="1565" unicode="Ô" d="M782 1421q135 0 259 -60t229 -177q100 -115 150 -246t50 -281q0 -316 -183.5 -499t-504.5 -183q-318 0 -503 180.5t-185 491.5q0 116 29 221.5t86 198.5q104 169 254 261.5t319 92.5zM1235 709q0 297 -126.5 481t-326.5 184q-199 0 -325.5 -184t-126.5 -481 q0 -322 120.5 -503t331.5 -181q212 0 332.5 181t120.5 503zM735 1882h94l223 -348h-47l-223 231l-223 -231h-47z"/>
<glyph glyph-name="Otilde" horiz-adv-x="1565" unicode="Õ" d="M782 1421q135 0 259 -60t229 -177q100 -115 150 -246t50 -281q0 -316 -183.5 -499t-504.5 -183q-318 0 -503 180.5t-185 491.5q0 116 29 221.5t86 198.5q104 169 254 261.5t319 92.5zM1235 709q0 297 -126.5 481t-326.5 184q-199 0 -325.5 -184t-126.5 -481 q0 -322 120.5 -503t331.5 -181q212 0 332.5 181t120.5 503zM1024 1802h43q-19 -90 -63.5 -137t-110.5 -47q-15 0 -33 3t-45 11l-117 37q-19 5 -35.5 8.5t-23.5 3.5q-42 0 -64 -20.5t-35 -69.5h-43q16 86 60.5 134t109.5 48q20 0 42.5 -3.5t47.5 -10.5l117 -37q14 -4 27.5 -6 t27.5 -2q38 0 61 21t34 67z"/>
<glyph glyph-name="Odieresis" horiz-adv-x="1565" unicode="Ö" d="M782 1421q135 0 259 -60t229 -177q100 -115 150 -246t50 -281q0 -316 -183.5 -499t-504.5 -183q-318 0 -503 180.5t-185 491.5q0 116 29 221.5t86 198.5q104 169 254 261.5t319 92.5zM1235 709q0 297 -126.5 481t-326.5 184q-199 0 -325.5 -184t-126.5 -481 q0 -322 120.5 -503t331.5 -181q212 0 332.5 181t120.5 503zM608 1777q35 0 61.5 -26t26.5 -62q0 -39 -25 -64.5t-63 -25.5t-63 25.5t-25 64.5q0 36 26.5 62t61.5 26zM956 1777q35 0 61.5 -26t26.5 -62q0 -38 -25.5 -64t-62.5 -26q-38 0 -63 25.5t-25 62.5t26 63.5t62 26.5z "/>
<glyph glyph-name="multiply" horiz-adv-x="1706" unicode="×" d="M381 1169l477 -477l475 477l82 -82l-475 -477l475 -475l-82 -82l-475 475l-477 -475l-80 82l475 475l-475 477z"/>
<glyph glyph-name="Oslash" horiz-adv-x="1565" unicode="Ø" d="M1130 1155q-69 112 -154.5 165.5t-193.5 53.5q-199 0 -325.5 -184t-126.5 -481q0 -103 16.5 -203.5t50.5 -200.5zM1413 1409q5 -7 6.5 -10.5t1.5 -5.5q0 -5 -1.5 -9.5t-4.5 -7.5l-155 -180q102 -104 156 -242t54 -297q0 -316 -183.5 -499t-504.5 -183q-143 0 -253.5 34.5 t-196.5 105.5l-127 -148q-4 -5 -9.5 -8.5t-9.5 -3.5q-3 0 -6 1.5t-8 6.5l-22 21q-3 3 -5 7t-2 9q0 2 5 9l4 6l122 145q-92 101 -136 222.5t-44 274.5q0 148 51 280t152 247q104 116 228 176.5t257 60.5q115 0 221 -43t209 -131l152 178q3 5 7 7.5t9 3.5q5 0 9.5 -2t9.5 -7z M436 238q51 -106 138 -159.5t208 -53.5q212 0 332.5 181t120.5 503q0 107 -17 199.5t-53 176.5z"/>
<glyph glyph-name="Ugrave" horiz-adv-x="1432" unicode="Ù" d="M551 1399q15 0 24 -6t9 -17q0 -16 -36 -27q-22 -6 -34 -12q-32 -14 -46 -33t-15 -48l-29 -861v-28q0 -169 88.5 -248.5t275.5 -79.5q214 0 310 86.5t96 280.5v851q0 29 -13 47t-44 33q-13 6 -34 12q-36 11 -36 27q0 11 8.5 17t24.5 6h233q16 0 25.5 -6.5t9.5 -16.5 q0 -16 -36 -27q-21 -6 -34 -12q-32 -15 -44.5 -33t-12.5 -47v-849q0 -220 -122 -326.5t-374 -106.5q-259 0 -395.5 110.5t-136.5 320.5v22l27 836v8q0 26 -10.5 39t-42.5 26q-13 5 -32 11q-38 12 -38 28q0 10 9.5 16.5t25.5 6.5h399zM661 1839l242 -305h-49l-273 235 q-29 26 -38 39.5t-9 28.5q0 21 16.5 37t39.5 16q16 0 32 -11.5t39 -39.5z"/>
<glyph glyph-name="Uacute" horiz-adv-x="1432" unicode="Ú" d="M551 1399q15 0 24 -6t9 -17q0 -16 -36 -27q-22 -6 -34 -12q-32 -14 -46 -33t-15 -48l-29 -861v-28q0 -169 88.5 -248.5t275.5 -79.5q214 0 310 86.5t96 280.5v851q0 29 -13 47t-44 33q-13 6 -34 12q-36 11 -36 27q0 11 8.5 17t24.5 6h233q16 0 25.5 -6.5t9.5 -16.5 q0 -16 -36 -27q-21 -6 -34 -12q-32 -15 -44.5 -33t-12.5 -47v-849q0 -220 -122 -326.5t-374 -106.5q-259 0 -395.5 110.5t-136.5 320.5v22l27 836v8q0 26 -10.5 39t-42.5 26q-13 5 -32 11q-38 12 -38 28q0 10 9.5 16.5t25.5 6.5h399zM975 1769l-273 -235h-49l242 305 q23 28 39 39.5t32 11.5q23 0 39.5 -16t16.5 -37q0 -15 -9 -28.5t-38 -39.5z"/>
<glyph glyph-name="Ucircumflex" horiz-adv-x="1432" unicode="Û" d="M551 1399q15 0 24 -6t9 -17q0 -16 -36 -27q-22 -6 -34 -12q-32 -14 -46 -33t-15 -48l-29 -861v-28q0 -169 88.5 -248.5t275.5 -79.5q214 0 310 86.5t96 280.5v851q0 29 -13 47t-44 33q-13 6 -34 12q-36 11 -36 27q0 11 8.5 17t24.5 6h233q16 0 25.5 -6.5t9.5 -16.5 q0 -16 -36 -27q-21 -6 -34 -12q-32 -15 -44.5 -33t-12.5 -47v-849q0 -220 -122 -326.5t-374 -106.5q-259 0 -395.5 110.5t-136.5 320.5v22l27 836v8q0 26 -10.5 39t-42.5 26q-13 5 -32 11q-38 12 -38 28q0 10 9.5 16.5t25.5 6.5h399zM731 1882h94l223 -348h-47l-223 231 l-223 -231h-47z"/>
<glyph glyph-name="Udieresis" horiz-adv-x="1432" unicode="Ü" d="M551 1399q15 0 24 -6t9 -17q0 -16 -36 -27q-22 -6 -34 -12q-32 -14 -46 -33t-15 -48l-29 -861v-28q0 -169 88.5 -248.5t275.5 -79.5q214 0 310 86.5t96 280.5v851q0 29 -13 47t-44 33q-13 6 -34 12q-36 11 -36 27q0 11 8.5 17t24.5 6h233q16 0 25.5 -6.5t9.5 -16.5 q0 -16 -36 -27q-21 -6 -34 -12q-32 -15 -44.5 -33t-12.5 -47v-849q0 -220 -122 -326.5t-374 -106.5q-259 0 -395.5 110.5t-136.5 320.5v22l27 836v8q0 26 -10.5 39t-42.5 26q-13 5 -32 11q-38 12 -38 28q0 10 9.5 16.5t25.5 6.5h399zM604 1777q35 0 61.5 -26t26.5 -62 q0 -39 -25 -64.5t-63 -25.5t-63 25.5t-25 64.5q0 36 26.5 62t61.5 26zM952 1777q35 0 61.5 -26t26.5 -62q0 -38 -25.5 -64t-62.5 -26q-38 0 -63 25.5t-25 62.5t26 63.5t62 26.5z"/>
<glyph glyph-name="Yacute" horiz-adv-x="1352" unicode="Ý" d="M791 612h18l328 599q7 13 10.5 26.5t3.5 28.5q0 26 -14 46.5t-38 29.5q-11 4 -30 9q-34 9 -35 25q0 11 10 17t27 6h272q18 0 27.5 -6t9.5 -17q0 -8 -69 -40.5t-105 -96.5l-379 -690v-408q0 -30 14.5 -48t49.5 -32q15 -6 41 -13q37 -10 37 -25q-1 -12 -10.5 -17.5 t-26.5 -5.5h-412q-17 0 -26.5 5.5t-10.5 17.5q0 16 36 25q25 7 40 13q34 13 49 32t15 48v381l-439 692q-45 72 -129 113.5t-84 48.5q1 12 10.5 17.5t26.5 5.5h432q18 0 27.5 -6t9.5 -17q0 -15 -32 -25q-14 -5 -22 -8q-24 -8 -37 -20t-13 -27q0 -5 1.5 -10.5t4.5 -9.5z M873 1769l-273 -235h-49l242 305q23 28 39 39.5t32 11.5q23 0 39.5 -16t16.5 -37q0 -15 -9 -28.5t-38 -39.5z"/>
<glyph glyph-name="Thorn" horiz-adv-x="1360" unicode="Þ" d="M440 141q0 -29 15 -47.5t51 -32.5q15 -6 40 -13q36 -9 36 -25q-1 -12 -10.5 -17.5t-26.5 -5.5h-412q-17 0 -26.5 5.5t-10.5 17.5q0 16 36 25q25 7 40 13q35 14 50.5 33t15.5 47v1116q0 29 -13 47t-44 33q-13 6 -34 12q-36 11 -36 27q0 11 8.5 17t23.5 6h392q15 0 23.5 -6 t8.5 -17q0 -16 -36 -27q-21 -6 -34 -12q-32 -15 -44.5 -33t-12.5 -47v-67q0 -23 9 -31t45 -8h38q338 0 546 -131.5t208 -337.5q0 -195 -183.5 -300.5t-527.5 -105.5h-81q-34 0 -44 -8t-10 -32v-95zM440 1038v-641q0 -44 23.5 -58.5t120.5 -14.5h37q197 0 312.5 95.5 t115.5 258.5q0 182 -138 303t-344 121h-28q-66 0 -82.5 -13t-16.5 -51z"/>
<glyph glyph-name="germandbls" horiz-adv-x="1049" unicode="ß" d="M332 -113q0 -86 -45.5 -140t-118.5 -54q-65 0 -114.5 40.5t-49.5 86.5q0 10 5 17t11 7t31.5 -23.5t52.5 -23.5q36 0 51 24t15 83v852h-76q-10 0 -14 2.5t-8 11.5l-15 49v4q1 4 4.5 5t14.5 1l94 1q-3 40 -3.5 59.5t-0.5 36.5q0 241 91.5 369t262.5 128q132 0 221.5 -94 t89.5 -233q0 -105 -57.5 -172.5t-167.5 -89.5q166 -54 251 -173t85 -299q0 -170 -83.5 -278.5t-211.5 -108.5q-78 0 -138 44.5t-60 93.5q0 13 5.5 18.5t18.5 5.5q5 0 20 -9q51 -30 101 -30q79 0 123.5 84.5t44.5 235.5q0 97 -19 165t-59 115q-41 49 -98.5 79t-106.5 30h-24 q-5 0 -7.5 5t-3.5 15v21q1 10 5.5 14t13.5 4h24q97 0 143 63t46 195q0 126 -43 190t-127 64q-81 0 -127.5 -78.5t-46.5 -218.5v-1194z"/>
<glyph glyph-name="agrave" horiz-adv-x="977" unicode="à" d="M748 610l65 -471q5 -30 16.5 -41.5t36.5 -11.5q42 0 67 27.5t32 27.5q6 0 9 -4t3 -12q0 -46 -48 -83.5t-114 -37.5q-54 0 -91.5 24.5t-64.5 77.5q-47 -66 -114 -98.5t-156 -32.5q-130 0 -216.5 75t-86.5 188q0 121 93 203.5t231 82.5q41 0 83 -11.5t87 -35.5l10 8v11 q0 130 -42.5 192t-131.5 62q-101 0 -203 -90q-22 -19 -27 -19q-9 0 -15.5 6.5t-6.5 14.5q0 12 22.5 40t57.5 54q70 52 134.5 75t139.5 23q107 0 158 -52.5t72 -191.5zM637 244l-19 108q-7 52 -51.5 82.5t-111.5 30.5q-86 0 -135.5 -58.5t-49.5 -160.5q0 -96 49.5 -152.5 t133.5 -56.5q80 0 133 50.5t53 125.5q0 13 -0.5 19t-1.5 12zM377 1270l242 -305h-49l-273 235q-29 26 -38 39.5t-9 28.5q0 21 16.5 37t39.5 16q16 0 32 -11.5t39 -39.5z"/>
<glyph glyph-name="aacute" horiz-adv-x="977" unicode="á" d="M748 610l65 -471q5 -30 16.5 -41.5t36.5 -11.5q42 0 67 27.5t32 27.5q6 0 9 -4t3 -12q0 -46 -48 -83.5t-114 -37.5q-54 0 -91.5 24.5t-64.5 77.5q-47 -66 -114 -98.5t-156 -32.5q-130 0 -216.5 75t-86.5 188q0 121 93 203.5t231 82.5q41 0 83 -11.5t87 -35.5l10 8v11 q0 130 -42.5 192t-131.5 62q-101 0 -203 -90q-22 -19 -27 -19q-9 0 -15.5 6.5t-6.5 14.5q0 12 22.5 40t57.5 54q70 52 134.5 75t139.5 23q107 0 158 -52.5t72 -191.5zM637 244l-19 108q-7 52 -51.5 82.5t-111.5 30.5q-86 0 -135.5 -58.5t-49.5 -160.5q0 -96 49.5 -152.5 t133.5 -56.5q80 0 133 50.5t53 125.5q0 13 -0.5 19t-1.5 12zM691 1200l-273 -235h-49l242 305q23 28 39 39.5t32 11.5q23 0 39.5 -16t16.5 -37q0 -15 -9 -28.5t-38 -39.5z"/>
<glyph glyph-name="acircumflex" horiz-adv-x="977" unicode="â" d="M748 610l65 -471q5 -30 16.5 -41.5t36.5 -11.5q42 0 67 27.5t32 27.5q6 0 9 -4t3 -12q0 -46 -48 -83.5t-114 -37.5q-54 0 -91.5 24.5t-64.5 77.5q-47 -66 -114 -98.5t-156 -32.5q-130 0 -216.5 75t-86.5 188q0 121 93 203.5t231 82.5q41 0 83 -11.5t87 -35.5l10 8v11 q0 130 -42.5 192t-131.5 62q-101 0 -203 -90q-22 -19 -27 -19q-9 0 -15.5 6.5t-6.5 14.5q0 12 22.5 40t57.5 54q70 52 134.5 75t139.5 23q107 0 158 -52.5t72 -191.5zM637 244l-19 108q-7 52 -51.5 82.5t-111.5 30.5q-86 0 -135.5 -58.5t-49.5 -160.5q0 -96 49.5 -152.5 t133.5 -56.5q80 0 133 50.5t53 125.5q0 13 -0.5 19t-1.5 12zM447 1313h94l223 -348h-47l-223 231l-223 -231h-47z"/>
<glyph glyph-name="atilde" horiz-adv-x="977" unicode="ã" d="M748 610l65 -471q5 -30 16.5 -41.5t36.5 -11.5q42 0 67 27.5t32 27.5q6 0 9 -4t3 -12q0 -46 -48 -83.5t-114 -37.5q-54 0 -91.5 24.5t-64.5 77.5q-47 -66 -114 -98.5t-156 -32.5q-130 0 -216.5 75t-86.5 188q0 121 93 203.5t231 82.5q41 0 83 -11.5t87 -35.5l10 8v11 q0 130 -42.5 192t-131.5 62q-101 0 -203 -90q-22 -19 -27 -19q-9 0 -15.5 6.5t-6.5 14.5q0 12 22.5 40t57.5 54q70 52 134.5 75t139.5 23q107 0 158 -52.5t72 -191.5zM637 244l-19 108q-7 52 -51.5 82.5t-111.5 30.5q-86 0 -135.5 -58.5t-49.5 -160.5q0 -96 49.5 -152.5 t133.5 -56.5q80 0 133 50.5t53 125.5q0 13 -0.5 19t-1.5 12zM736 1233h43q-19 -90 -63.5 -137t-110.5 -47q-15 0 -33 3t-45 11l-117 37q-19 5 -35.5 8.5t-23.5 3.5q-42 0 -64 -20.5t-35 -69.5h-43q16 86 60.5 134t109.5 48q20 0 42.5 -3.5t47.5 -10.5l117 -37q14 -4 27.5 -6 t27.5 -2q38 0 61 21t34 67z"/>
<glyph glyph-name="adieresis" horiz-adv-x="977" unicode="ä" d="M748 610l65 -471q5 -30 16.5 -41.5t36.5 -11.5q42 0 67 27.5t32 27.5q6 0 9 -4t3 -12q0 -46 -48 -83.5t-114 -37.5q-54 0 -91.5 24.5t-64.5 77.5q-47 -66 -114 -98.5t-156 -32.5q-130 0 -216.5 75t-86.5 188q0 121 93 203.5t231 82.5q41 0 83 -11.5t87 -35.5l10 8v11 q0 130 -42.5 192t-131.5 62q-101 0 -203 -90q-22 -19 -27 -19q-9 0 -15.5 6.5t-6.5 14.5q0 12 22.5 40t57.5 54q70 52 134.5 75t139.5 23q107 0 158 -52.5t72 -191.5zM637 244l-19 108q-7 52 -51.5 82.5t-111.5 30.5q-86 0 -135.5 -58.5t-49.5 -160.5q0 -96 49.5 -152.5 t133.5 -56.5q80 0 133 50.5t53 125.5q0 13 -0.5 19t-1.5 12zM320 1208q35 0 61.5 -26t26.5 -62q0 -39 -25 -64.5t-63 -25.5t-63 25.5t-25 64.5q0 36 26.5 62t61.5 26zM668 1208q35 0 61.5 -26t26.5 -62q0 -38 -25.5 -64t-62.5 -26q-38 0 -63 25.5t-25 62.5t26 63.5t62 26.5z "/>
<glyph glyph-name="aring" horiz-adv-x="977" unicode="å" d="M748 610l65 -471q5 -30 16.5 -41.5t36.5 -11.5q42 0 67 27.5t32 27.5q6 0 9 -4t3 -12q0 -46 -48 -83.5t-114 -37.5q-54 0 -91.5 24.5t-64.5 77.5q-47 -66 -114 -98.5t-156 -32.5q-130 0 -216.5 75t-86.5 188q0 121 93 203.5t231 82.5q41 0 83 -11.5t87 -35.5l10 8v11 q0 130 -42.5 192t-131.5 62q-101 0 -203 -90q-22 -19 -27 -19q-9 0 -15.5 6.5t-6.5 14.5q0 12 22.5 40t57.5 54q70 52 134.5 75t139.5 23q107 0 158 -52.5t72 -191.5zM637 244l-19 108q-7 52 -51.5 82.5t-111.5 30.5q-86 0 -135.5 -58.5t-49.5 -160.5q0 -96 49.5 -152.5 t133.5 -56.5q80 0 133 50.5t53 125.5q0 13 -0.5 19t-1.5 12zM483 1386q99 0 166.5 -67.5t67.5 -165.5t-67.5 -165.5t-166.5 -67.5q-98 0 -165.5 67.5t-67.5 165.5t67.5 165.5t165.5 67.5zM483 1305q-64 0 -107.5 -44t-43.5 -108t43.5 -108t107.5 -44q65 0 108.5 44t43.5 108 q0 63 -44.5 107.5t-107.5 44.5z"/>
<glyph glyph-name="ae" horiz-adv-x="1470" unicode="æ" d="M637 244l-19 108q-7 52 -51.5 82.5t-111.5 30.5q-86 0 -135.5 -58.5t-49.5 -160.5q0 -96 49.5 -152.5t133.5 -56.5q80 0 133 50.5t53 125.5q0 13 -0.5 19t-1.5 12zM711 752q59 51 127 76.5t147 25.5q77 0 143 -23t121 -69q62 -52 97.5 -115t35.5 -119q0 -13 -6.5 -20 t-19.5 -8l-541 -74q-23 -4 -30 -10t-7 -23q0 -29 10 -68.5t27 -78.5q40 -93 110.5 -143t161.5 -50q44 0 84 12t74 35q33 24 69 66.5t48 42.5q9 0 15.5 -5.5t6.5 -13.5q0 -12 -14 -34.5t-39 -46.5q-69 -70 -138.5 -102t-150.5 -32q-111 0 -200.5 41t-159.5 123 q-55 -85 -124.5 -124.5t-168.5 -39.5q-130 0 -216.5 75t-86.5 188q0 121 93 203.5t231 82.5q41 0 83 -11.5t87 -35.5l10 8v11q0 130 -42.5 192t-131.5 62q-101 0 -203 -90q-22 -19 -27 -19q-9 0 -15.5 6.5t-6.5 14.5q0 12 22.5 40t57.5 54q70 52 134.5 75t139.5 23 q72 0 121.5 -26.5t71.5 -75.5zM1159 530q10 2 17.5 9t7.5 14q0 99 -65 177.5t-148 78.5q-90 0 -148.5 -73.5t-58.5 -188.5q0 -40 6.5 -53t24.5 -13h10z"/>
<glyph glyph-name="ccedilla" horiz-adv-x="872" unicode="ç" d="M768 733l-82 -158q-4 -7 -7.5 -9.5t-8.5 -2.5q-9 0 -13 6t-4 21q0 4 2 22.5t2 32.5q0 78 -41.5 121t-115.5 43q-115 0 -181.5 -94.5t-66.5 -259.5q0 -182 79 -291t210 -109q58 0 106.5 23.5t81.5 66.5q9 12 21 32q21 34 36 34q9 0 15 -6.5t6 -16.5q0 -75 -96 -143 t-224 -68q-188 0 -299.5 110.5t-111.5 295.5q0 200 127.5 335.5t312.5 135.5q98 0 178 -35t80 -65q0 -5 -1.5 -10t-4.5 -11zM407 0h56v-121q10 2 22 3t33 1q81 0 127.5 -43t46.5 -119q0 -72 -57 -116.5t-150 -44.5q-54 0 -123 16.5t-153 50.5l26 66q65 -32 124.5 -50 t96.5 -18q64 0 95.5 25t31.5 76q0 43 -31 67.5t-87 24.5q-13 0 -27.5 -1.5t-29.5 -4.5z"/>
<glyph glyph-name="egrave" horiz-adv-x="952" unicode="è" d="M842 500l-541 -74q-24 -4 -31.5 -11t-7.5 -22q0 -27 10.5 -67t28.5 -80q40 -93 110.5 -143t161.5 -50q44 0 82.5 12t73.5 35q33 24 69 66.5t48 42.5q9 0 15.5 -5.5t6.5 -13.5q0 -12 -14 -34.5t-39 -46.5q-70 -70 -138.5 -102t-148.5 -32q-202 0 -330 127t-128 328 q0 190 111 307t290 117q76 0 142.5 -23t121.5 -69q62 -52 97.5 -115t35.5 -119q0 -13 -6.5 -20t-19.5 -8zM645 530q10 2 17.5 9t7.5 14q0 99 -66 177.5t-149 78.5q-90 0 -147.5 -73.5t-57.5 -188.5q0 -40 6.5 -53t24.5 -13h10zM360 1270l242 -305h-49l-273 235 q-29 26 -38 39.5t-9 28.5q0 21 16.5 37t39.5 16q16 0 32 -11.5t39 -39.5z"/>
<glyph glyph-name="eacute" horiz-adv-x="952" unicode="é" d="M842 500l-541 -74q-24 -4 -31.5 -11t-7.5 -22q0 -27 10.5 -67t28.5 -80q40 -93 110.5 -143t161.5 -50q44 0 82.5 12t73.5 35q33 24 69 66.5t48 42.5q9 0 15.5 -5.5t6.5 -13.5q0 -12 -14 -34.5t-39 -46.5q-70 -70 -138.5 -102t-148.5 -32q-202 0 -330 127t-128 328 q0 190 111 307t290 117q76 0 142.5 -23t121.5 -69q62 -52 97.5 -115t35.5 -119q0 -13 -6.5 -20t-19.5 -8zM645 530q10 2 17.5 9t7.5 14q0 99 -66 177.5t-149 78.5q-90 0 -147.5 -73.5t-57.5 -188.5q0 -40 6.5 -53t24.5 -13h10zM674 1200l-273 -235h-49l242 305 q23 28 39 39.5t32 11.5q23 0 39.5 -16t16.5 -37q0 -15 -9 -28.5t-38 -39.5z"/>
<glyph glyph-name="ecircumflex" horiz-adv-x="952" unicode="ê" d="M842 500l-541 -74q-24 -4 -31.5 -11t-7.5 -22q0 -27 10.5 -67t28.5 -80q40 -93 110.5 -143t161.5 -50q44 0 82.5 12t73.5 35q33 24 69 66.5t48 42.5q9 0 15.5 -5.5t6.5 -13.5q0 -12 -14 -34.5t-39 -46.5q-70 -70 -138.5 -102t-148.5 -32q-202 0 -330 127t-128 328 q0 190 111 307t290 117q76 0 142.5 -23t121.5 -69q62 -52 97.5 -115t35.5 -119q0 -13 -6.5 -20t-19.5 -8zM645 530q10 2 17.5 9t7.5 14q0 99 -66 177.5t-149 78.5q-90 0 -147.5 -73.5t-57.5 -188.5q0 -40 6.5 -53t24.5 -13h10zM430 1313h94l223 -348h-47l-223 231l-223 -231 h-47z"/>
<glyph glyph-name="edieresis" horiz-adv-x="952" unicode="ë" d="M842 500l-541 -74q-24 -4 -31.5 -11t-7.5 -22q0 -27 10.5 -67t28.5 -80q40 -93 110.5 -143t161.5 -50q44 0 82.5 12t73.5 35q33 24 69 66.5t48 42.5q9 0 15.5 -5.5t6.5 -13.5q0 -12 -14 -34.5t-39 -46.5q-70 -70 -138.5 -102t-148.5 -32q-202 0 -330 127t-128 328 q0 190 111 307t290 117q76 0 142.5 -23t121.5 -69q62 -52 97.5 -115t35.5 -119q0 -13 -6.5 -20t-19.5 -8zM645 530q10 2 17.5 9t7.5 14q0 99 -66 177.5t-149 78.5q-90 0 -147.5 -73.5t-57.5 -188.5q0 -40 6.5 -53t24.5 -13h10zM303 1208q35 0 61.5 -26t26.5 -62 q0 -39 -25 -64.5t-63 -25.5t-63 25.5t-25 64.5q0 36 26.5 62t61.5 26zM651 1208q35 0 61.5 -26t26.5 -62q0 -38 -25.5 -64t-62.5 -26q-38 0 -63 25.5t-25 62.5t26 63.5t62 26.5z"/>
<glyph glyph-name="igrave" horiz-adv-x="551" unicode="ì" d="M199 655q0 24 -8 37t-28 21q-13 5 -39 11q-36 9 -36 24q0 8 4.5 13t20.5 11l227 94q1 1 4.5 3.5t7.5 2.5q10 0 14.5 -6.5t4.5 -19.5v-705q0 -53 53 -80.5t53 -37.5q0 -11 -7.5 -17t-20.5 -6h-336q-15 0 -23 5.5t-8 14.5q0 17 36 30q18 7 28 12q30 16 41.5 33.5t11.5 45.5 v514zM159 1270l242 -305h-49l-273 235q-29 26 -38 39.5t-9 28.5q0 21 16.5 37t39.5 16q16 0 32 -11.5t39 -39.5z"/>
<glyph glyph-name="iacute" horiz-adv-x="551" unicode="í" d="M199 655q0 24 -8 37t-28 21q-13 5 -39 11q-36 9 -36 24q0 8 4.5 13t20.5 11l227 94q1 1 4.5 3.5t7.5 2.5q10 0 14.5 -6.5t4.5 -19.5v-705q0 -53 53 -80.5t53 -37.5q0 -11 -7.5 -17t-20.5 -6h-336q-15 0 -23 5.5t-8 14.5q0 17 36 30q18 7 28 12q30 16 41.5 33.5t11.5 45.5 v514zM473 1200l-273 -235h-49l242 305q23 28 39 39.5t32 11.5q23 0 39.5 -16t16.5 -37q0 -15 -9 -28.5t-38 -39.5z"/>
<glyph glyph-name="icircumflex" horiz-adv-x="551" unicode="î" d="M199 655q0 24 -8 37t-28 21q-13 5 -39 11q-36 9 -36 24q0 8 4.5 13t20.5 11l227 94q1 1 4.5 3.5t7.5 2.5q10 0 14.5 -6.5t4.5 -19.5v-705q0 -53 53 -80.5t53 -37.5q0 -11 -7.5 -17t-20.5 -6h-336q-15 0 -23 5.5t-8 14.5q0 17 36 30q18 7 28 12q30 16 41.5 33.5t11.5 45.5 v514zM229 1313h94l223 -348h-47l-223 231l-223 -231h-47z"/>
<glyph glyph-name="idieresis" horiz-adv-x="551" unicode="ï" d="M199 655q0 24 -8 37t-28 21q-13 5 -39 11q-36 9 -36 24q0 8 4.5 13t20.5 11l227 94q1 1 4.5 3.5t7.5 2.5q10 0 14.5 -6.5t4.5 -19.5v-705q0 -53 53 -80.5t53 -37.5q0 -11 -7.5 -17t-20.5 -6h-336q-15 0 -23 5.5t-8 14.5q0 17 36 30q18 7 28 12q30 16 41.5 33.5t11.5 45.5 v514zM102 1208q35 0 61.5 -26t26.5 -62q0 -39 -25 -64.5t-63 -25.5t-63 25.5t-25 64.5q0 36 26.5 62t61.5 26zM450 1208q35 0 61.5 -26t26.5 -62q0 -38 -25.5 -64t-62.5 -26q-38 0 -63 25.5t-25 62.5t26 63.5t62 26.5z"/>
<glyph glyph-name="eth" d="M795 299q0 210 -103 356t-248 146q-102 0 -159.5 -65.5t-57.5 -182.5q0 -77 21 -159t57 -148q58 -108 128 -160.5t153 -52.5q101 0 155 68.5t54 197.5zM680 813q-33 85 -80 163.5t-108 151.5l-246 -139q-13 -8 -20.5 -11t-14.5 -3q-5 0 -8.5 1t-3.5 3l-13 25 q-1 1 -1.5 2.5t-0.5 5.5t7 10t36 22l224 132q-75 85 -164.5 150t-89.5 77q0 8 7 13t19 5q48 0 147 -51.5t191 -132.5l256 145q12 6 21 9.5t14 3.5q3 0 6.5 -1.5t3.5 -2.5l15 -23q1 -1 1.5 -3t0.5 -5q0 -4 -10 -12t-33 -21l-230 -133q160 -163 248 -364.5t88 -403.5 q0 -207 -117 -329t-317 -122q-193 0 -315.5 125.5t-122.5 321.5q0 188 122 310t310 122q40 0 84.5 -10t93.5 -31z" unicode="ð"/>
<glyph glyph-name="ntilde" horiz-adv-x="1081" unicode="ñ" d="M934 141q4 -40 15 -55t43 -29q3 -1 12 -5q34 -14 34 -29q0 -11 -7.5 -17t-20.5 -6h-308q-14 0 -23 5.5t-9 14.5q0 10 48 38t48 77v43l-45 422q-8 76 -49.5 117t-110.5 41q-93 0 -152 -59.5t-59 -153.5v-404q0 -53 54.5 -80.5t54.5 -37.5q-1 -12 -8.5 -17.5t-20.5 -5.5 h-328q-14 0 -22 5.5t-8 14.5q0 17 36 30q18 7 28 12q31 16 42.5 34t11.5 45v496q0 23 -8.5 36.5t-27.5 20.5q-15 6 -40 12q-36 8 -36 23q0 9 4 13.5t20 11.5l217 94q1 0 4 2q6 4 11 4q7 0 11.5 -7t4.5 -20l-2 -118l8 -2q70 71 149 109t157 38q91 0 147.5 -55t67.5 -154z M783 1233h43q-19 -90 -63.5 -137t-110.5 -47q-15 0 -33 3t-45 11l-117 37q-19 5 -35.5 8.5t-23.5 3.5q-42 0 -64 -20.5t-35 -69.5h-43q16 86 60.5 134t109.5 48q20 0 42.5 -3.5t47.5 -10.5l117 -37q14 -4 27.5 -6t27.5 -2q38 0 61 21t34 67z"/>
<glyph glyph-name="ograve" d="M506 854q91 0 175 -40.5t148 -115.5q61 -71 93 -152.5t32 -162.5q0 -174 -127.5 -291t-318.5 -117q-193 0 -315.5 125.5t-122.5 321.5q0 189 122 310.5t314 121.5zM428 799q-91 0 -146 -66.5t-55 -179.5q0 -77 21 -159t57 -148q59 -109 128 -161t153 -52q93 0 146.5 64.5 t53.5 176.5q0 105 -39 209.5t-112 194.5q-47 57 -102 89t-105 32zM395 1270l242 -305h-49l-273 235q-29 26 -38 39.5t-9 28.5q0 21 16.5 37t39.5 16q16 0 32 -11.5t39 -39.5z" unicode="ò"/>
<glyph glyph-name="oacute" d="M506 854q91 0 175 -40.5t148 -115.5q61 -71 93 -152.5t32 -162.5q0 -174 -127.5 -291t-318.5 -117q-193 0 -315.5 125.5t-122.5 321.5q0 189 122 310.5t314 121.5zM428 799q-91 0 -146 -66.5t-55 -179.5q0 -77 21 -159t57 -148q59 -109 128 -161t153 -52q93 0 146.5 64.5 t53.5 176.5q0 105 -39 209.5t-112 194.5q-47 57 -102 89t-105 32zM709 1200l-273 -235h-49l242 305q23 28 39 39.5t32 11.5q23 0 39.5 -16t16.5 -37q0 -15 -9 -28.5t-38 -39.5z" unicode="ó"/>
<glyph glyph-name="ocircumflex" d="M506 854q91 0 175 -40.5t148 -115.5q61 -71 93 -152.5t32 -162.5q0 -174 -127.5 -291t-318.5 -117q-193 0 -315.5 125.5t-122.5 321.5q0 189 122 310.5t314 121.5zM428 799q-91 0 -146 -66.5t-55 -179.5q0 -77 21 -159t57 -148q59 -109 128 -161t153 -52q93 0 146.5 64.5 t53.5 176.5q0 105 -39 209.5t-112 194.5q-47 57 -102 89t-105 32zM465 1313h94l223 -348h-47l-223 231l-223 -231h-47z" unicode="ô"/>
<glyph glyph-name="otilde" d="M506 854q91 0 175 -40.5t148 -115.5q61 -71 93 -152.5t32 -162.5q0 -174 -127.5 -291t-318.5 -117q-193 0 -315.5 125.5t-122.5 321.5q0 189 122 310.5t314 121.5zM428 799q-91 0 -146 -66.5t-55 -179.5q0 -77 21 -159t57 -148q59 -109 128 -161t153 -52q93 0 146.5 64.5 t53.5 176.5q0 105 -39 209.5t-112 194.5q-47 57 -102 89t-105 32zM754 1233h43q-19 -90 -63.5 -137t-110.5 -47q-15 0 -33 3t-45 11l-117 37q-19 5 -35.5 8.5t-23.5 3.5q-42 0 -64 -20.5t-35 -69.5h-43q16 86 60.5 134t109.5 48q20 0 42.5 -3.5t47.5 -10.5l117 -37 q14 -4 27.5 -6t27.5 -2q38 0 61 21t34 67z" unicode="õ"/>
<glyph glyph-name="odieresis" d="M506 854q91 0 175 -40.5t148 -115.5q61 -71 93 -152.5t32 -162.5q0 -174 -127.5 -291t-318.5 -117q-193 0 -315.5 125.5t-122.5 321.5q0 189 122 310.5t314 121.5zM428 799q-91 0 -146 -66.5t-55 -179.5q0 -77 21 -159t57 -148q59 -109 128 -161t153 -52q93 0 146.5 64.5 t53.5 176.5q0 105 -39 209.5t-112 194.5q-47 57 -102 89t-105 32zM338 1208q35 0 61.5 -26t26.5 -62q0 -39 -25 -64.5t-63 -25.5t-63 25.5t-25 64.5q0 36 26.5 62t61.5 26zM686 1208q35 0 61.5 -26t26.5 -62q0 -38 -25.5 -64t-62.5 -26q-38 0 -63 25.5t-25 62.5t26 63.5 t62 26.5z" unicode="ö"/>
<glyph glyph-name="divide" horiz-adv-x="1706" unicode="÷" d="M854 1085q48 0 81.5 -33.5t33.5 -80.5q0 -48 -33.5 -81.5t-81.5 -33.5q-49 0 -82 33.5t-33 81.5q0 47 34 80.5t81 33.5zM254 670h1198v-117h-1198v117zM854 365q47 0 81 -34t34 -81t-33.5 -81t-81.5 -34t-81.5 33.5t-33.5 81.5t34 81.5t81 33.5z"/>
<glyph glyph-name="oslash" d="M346 180q45 -70 109.5 -109.5t132.5 -39.5q92 0 145 65t53 178q0 75 -21 152.5t-65 159.5zM768 756l102 116q3 4 7 6.5t6 2.5q5 0 9 -2t7 -5l16 -18q3 -3 4.5 -5.5t2.5 -4.5q0 -2 -2 -6t-5 -6l-102 -121q71 -76 106 -161.5t35 -182.5q0 -78 -34 -151t-97 -128 q-63 -56 -144 -85.5t-171 -29.5q-80 0 -146.5 21t-119.5 63l-88 -100q-4 -3 -7 -4.5t-6 -1.5q-5 0 -7 0.5t-3 1.5l-27 22q-2 3 -3 5t-1 4l2 4l2 4l93 106q-64 72 -95.5 151.5t-31.5 168.5q0 190 122 312t314 122q70 0 136 -24.5t126 -73.5zM666 639q-55 77 -117 118.5 t-121 41.5q-91 0 -146 -66.5t-55 -179.5q0 -80 21.5 -160t62.5 -157z" unicode="ø"/>
<glyph glyph-name="ugrave" horiz-adv-x="1049" unicode="ù" d="M709 117l-9 2q-64 -71 -137.5 -108.5t-146.5 -37.5q-106 0 -171 59t-65 152v463q0 30 -8.5 42.5t-28.5 12.5q-23 15 -49 21.5t-26 7.5q0 19 4 26t20 7l219 84q2 6 3.5 8t2.5 2t4 -2t5 -2q1 0 5 1t5 1q2 0 3 -4t1 -25l-2 -596q0 -79 40 -121t116 -42q94 0 153.5 60.5 t59.5 156.5v362q0 30 -9 42.5t-28 12.5q-24 15 -50 21.5t-26 7.5q0 19 4.5 26t19.5 7l220 84q1 5 2.5 7.5t3.5 2.5l3 -2q3 -2 5 -2t6 1l4 1q3 0 4.5 -6t1.5 -23v-680q0 -43 8.5 -57.5t33.5 -30.5q11 -7 42 -17.5t31 -27.5q0 -7 -5.5 -10.5t-16.5 -3.5h-220q-20 0 -26 7 t-6 28v82zM407 1270l242 -305h-49l-273 235q-29 26 -38 39.5t-9 28.5q0 21 16.5 37t39.5 16q16 0 32 -11.5t39 -39.5z"/>
<glyph glyph-name="uacute" horiz-adv-x="1049" unicode="ú" d="M709 117l-9 2q-64 -71 -137.5 -108.5t-146.5 -37.5q-106 0 -171 59t-65 152v463q0 30 -8.5 42.5t-28.5 12.5q-23 15 -49 21.5t-26 7.5q0 19 4 26t20 7l219 84q2 6 3.5 8t2.5 2t4 -2t5 -2q1 0 5 1t5 1q2 0 3 -4t1 -25l-2 -596q0 -79 40 -121t116 -42q94 0 153.5 60.5 t59.5 156.5v362q0 30 -9 42.5t-28 12.5q-24 15 -50 21.5t-26 7.5q0 19 4.5 26t19.5 7l220 84q1 5 2.5 7.5t3.5 2.5l3 -2q3 -2 5 -2t6 1l4 1q3 0 4.5 -6t1.5 -23v-680q0 -43 8.5 -57.5t33.5 -30.5q11 -7 42 -17.5t31 -27.5q0 -7 -5.5 -10.5t-16.5 -3.5h-220q-20 0 -26 7 t-6 28v82zM721 1200l-273 -235h-49l242 305q23 28 39 39.5t32 11.5q23 0 39.5 -16t16.5 -37q0 -15 -9 -28.5t-38 -39.5z"/>
<glyph glyph-name="ucircumflex" horiz-adv-x="1049" unicode="û" d="M709 117l-9 2q-64 -71 -137.5 -108.5t-146.5 -37.5q-106 0 -171 59t-65 152v463q0 30 -8.5 42.5t-28.5 12.5q-23 15 -49 21.5t-26 7.5q0 19 4 26t20 7l219 84q2 6 3.5 8t2.5 2t4 -2t5 -2q1 0 5 1t5 1q2 0 3 -4t1 -25l-2 -596q0 -79 40 -121t116 -42q94 0 153.5 60.5 t59.5 156.5v362q0 30 -9 42.5t-28 12.5q-24 15 -50 21.5t-26 7.5q0 19 4.5 26t19.5 7l220 84q1 5 2.5 7.5t3.5 2.5l3 -2q3 -2 5 -2t6 1l4 1q3 0 4.5 -6t1.5 -23v-680q0 -43 8.5 -57.5t33.5 -30.5q11 -7 42 -17.5t31 -27.5q0 -7 -5.5 -10.5t-16.5 -3.5h-220q-20 0 -26 7 t-6 28v82zM477 1313h94l223 -348h-47l-223 231l-223 -231h-47z"/>
<glyph glyph-name="udieresis" horiz-adv-x="1049" unicode="ü" d="M709 117l-9 2q-64 -71 -137.5 -108.5t-146.5 -37.5q-106 0 -171 59t-65 152v463q0 30 -8.5 42.5t-28.5 12.5q-23 15 -49 21.5t-26 7.5q0 19 4 26t20 7l219 84q2 6 3.5 8t2.5 2t4 -2t5 -2q1 0 5 1t5 1q2 0 3 -4t1 -25l-2 -596q0 -79 40 -121t116 -42q94 0 153.5 60.5 t59.5 156.5v362q0 30 -9 42.5t-28 12.5q-24 15 -50 21.5t-26 7.5q0 19 4.5 26t19.5 7l220 84q1 5 2.5 7.5t3.5 2.5l3 -2q3 -2 5 -2t6 1l4 1q3 0 4.5 -6t1.5 -23v-680q0 -43 8.5 -57.5t33.5 -30.5q11 -7 42 -17.5t31 -27.5q0 -7 -5.5 -10.5t-16.5 -3.5h-220q-20 0 -26 7 t-6 28v82zM350 1208q35 0 61.5 -26t26.5 -62q0 -39 -25 -64.5t-63 -25.5t-63 25.5t-25 64.5q0 36 26.5 62t61.5 26zM698 1208q35 0 61.5 -26t26.5 -62q0 -38 -25.5 -64t-62.5 -26q-38 0 -63 25.5t-25 62.5t26 63.5t62 26.5z"/>
<glyph glyph-name="yacute" horiz-adv-x="844" unicode="ý" d="M715 666q6 16 9 32t3 31q0 34 -45 54t-45 30q0 7 6.5 11.5t15.5 4.5h218q9 0 15.5 -4.5t6.5 -11.5q0 -14 -29 -25q-21 -7 -32 -14q-22 -14 -42 -43.5t-38 -75.5l-301 -729q-55 -133 -114.5 -183t-154.5 -50q-80 0 -112.5 17.5t-36.5 61.5l-10 140v8q0 12 3.5 17t12.5 6 q11 0 35 -35q11 -15 18 -24q28 -36 66 -53t90 -17q65 0 108 43t68 135l-317 721q-23 51 -71 71.5t-48 28.5q0 7 6.5 11.5t15.5 4.5h324q9 0 14.5 -4t5.5 -12q0 -15 -31 -26q-13 -4 -20 -7q-18 -7 -27.5 -19t-9.5 -28q0 -1 1 -4.5t4 -12.5l229 -532h10zM619 1200l-273 -235 h-49l242 305q23 28 39 39.5t32 11.5q23 0 39.5 -16t16.5 -37q0 -15 -9 -28.5t-38 -39.5z"/>
<glyph glyph-name="thorn" horiz-adv-x="1049" unicode="þ" d="M342 588v-381q0 -74 42 -110t128 -36q126 0 201 110t75 296q0 157 -62 246.5t-171 89.5q-89 0 -151 -62t-62 -153zM180 1204q0 24 -8.5 38t-28.5 22q-14 5 -40 11q-35 9 -35 23q0 9 4.5 14t19.5 11l219 92l4 2q6 4 11 4q9 0 12.5 -5.5t3.5 -18.5v-629l6 -4 q61 45 121 67.5t119 22.5q162 0 271.5 -131t109.5 -330q0 -177 -108 -297.5t-267 -120.5q-73 0 -136 25.5t-116 75.5v-269q0 -28 11 -45t42 -32q10 -5 27 -11q37 -14 37 -30q0 -10 -8 -15.5t-23 -5.5h-334q-14 0 -23 5.5t-10 15.5q1 16 37 29q19 7 28 11q32 16 43 33t11 45 v1397z"/>
<glyph glyph-name="dotlessi" horiz-adv-x="551" unicode="ı" d="M199 655q0 24 -8 37t-28 21q-13 5 -39 11q-36 9 -36 24q0 8 4.5 13t20.5 11l227 94q1 1 4.5 3.5t7.5 2.5q10 0 14.5 -6.5t4.5 -19.5v-705q0 -53 53 -80.5t53 -37.5q0 -11 -7.5 -17t-20.5 -6h-336q-15 0 -23 5.5t-8 14.5q0 17 36 30q18 7 28 12q30 16 41.5 33.5t11.5 45.5 v514z"/>
<glyph glyph-name="OE" horiz-adv-x="2247" unicode="Œ" d="M1163 0q-33 0 -159.5 -12.5t-221.5 -12.5q-321 0 -504.5 182.5t-183.5 499.5q0 148 51 280t152 247q104 116 228 176.5t257 60.5q32 0 159.5 -11t221.5 -11h625q42 0 76 2.5t63 7.5l170 -248q6 -9 9 -15t3 -9q0 -7 -6.5 -12t-15.5 -5q-18 0 -54.5 40.5t-60.5 60.5 q-86 69 -180 100t-217 31h-168q-24 -1 -32.5 -9t-8.5 -28v-424q0 -15 9 -24t24 -9h207q44 0 68 8t38 27q6 7 15 24q12 25 28 25q9 0 17 -5t16 -15l131 -193l2 -4q6 -12 6 -16q0 -5 -5.5 -10t-12.5 -5q-3 0 -46.5 28t-88.5 52q-31 16 -70.5 23.5t-101.5 7.5h-199 q-19 0 -28 -7.5t-9 -23.5v-690q0 -13 10.5 -20t30.5 -7h207q150 0 236.5 17.5t160.5 56.5q68 37 135 96.5t78 59.5t18 -5.5t7 -13.5q0 -4 -3.5 -11.5t-9.5 -15.5l-170 -241h-903zM1161 975q0 196 -96.5 297.5t-282.5 101.5q-199 0 -325.5 -184t-126.5 -481 q0 -330 122.5 -507t350.5 -177q190 0 274 97.5t84 319.5v533z"/>
<glyph glyph-name="oe" horiz-adv-x="1630" unicode="œ" d="M827 702q65 76 146.5 114t177.5 38q76 0 141.5 -23t120.5 -69q62 -52 97.5 -115t35.5 -119q0 -13 -6.5 -20t-19.5 -8l-541 -74q-24 -4 -31.5 -11t-7.5 -22q0 -27 10.5 -67t28.5 -80q40 -93 110.5 -143t161.5 -50q44 0 82.5 12t73.5 35q32 24 69.5 66.5t49.5 42.5 q8 0 14 -5.5t6 -13.5q0 -13 -13.5 -35.5t-37.5 -45.5q-71 -71 -142 -102.5t-161 -31.5q-98 0 -180.5 37t-153.5 113q-66 -73 -156 -111.5t-194 -38.5q-193 0 -315.5 125.5t-122.5 321.5q0 189 122 310.5t314 121.5q85 0 166.5 -38.5t154.5 -113.5zM786 274q0 106 -39 211 t-112 193q-49 57 -103 89t-104 32q-91 0 -146 -66.5t-55 -179.5q0 -77 21 -159t57 -148q59 -109 128 -161t153 -52q93 0 146.5 64.5t53.5 176.5zM1324 531q9 1 16.5 8t7.5 14q0 99 -66 177.5t-149 78.5q-90 0 -147.5 -73.5t-57.5 -188.5q0 -40 6.5 -53t23.5 -13h11z"/>
<glyph glyph-name="Scaron" horiz-adv-x="1374" unicode="Š" d="M987 1385l145 -219q8 -14 10.5 -20t2.5 -9q0 -11 -7 -19t-18 -8q-12 0 -43 31l-8 8q-125 127 -218.5 176t-199.5 49q-123 0 -198.5 -56t-75.5 -147q0 -124 342 -250q32 -12 49 -18q12 -4 35 -13q235 -85 319 -155q85 -69 126.5 -148t41.5 -171q0 -194 -149.5 -317.5 t-388.5 -123.5q-91 0 -212 27t-153 27q-51 -1 -94 -20q-7 -3 -8 -3q-4 0 -8 3t-11 11l-223 318l-2 3q-8 14 -8 19q0 10 7 16.5t15 6.5q23 0 78 -52q33 -31 53 -48q162 -139 285.5 -196.5t251.5 -57.5q165 0 262.5 90t97.5 241q0 130 -82 209.5t-323 165.5q-28 10 -80 28 q-204 71 -258 111q-65 50 -95 104t-30 122q0 143 115 232t303 89q66 0 157.5 -18.5t118.5 -18.5q25 0 53 9q7 2 9 2q5 -1 9 -3.5t7 -6.5zM418 1882h47l223 -232l223 232h47l-223 -348h-94z"/>
<glyph glyph-name="scaron" horiz-adv-x="807" unicode="š" d="M676 670q3 -7 4.5 -12t1.5 -9q0 -7 -6.5 -12.5t-16.5 -5.5q-12 0 -55 40.5t-80 65.5q-53 36 -102.5 54t-95.5 18q-50 0 -80.5 -25.5t-30.5 -64.5q0 -37 29 -66.5t96 -60.5q4 -2 15 -7q401 -185 401 -364q0 -110 -77.5 -178t-203.5 -68q-64 0 -134 20.5t-77 20.5 q-11 0 -30 -10t-25 -10q-5 0 -15 12l-1 2l-148 246q-4 7 -6 13t-2 10q0 7 8 13.5t16 6.5q23 0 58 -49q18 -24 28 -37q88 -109 150.5 -146.5t138.5 -37.5q82 0 128 40.5t46 112.5q0 56 -30.5 95t-120.5 88q-58 31 -152 74t-121 63q-53 39 -76.5 77t-23.5 85q0 82 65 135 t168 53q50 0 112 -10.5t77 -10.5q21 0 47 13q8 4 10 4q6 0 11.5 -2.5t7.5 -5.5zM133 1313h47l223 -232l223 232h47l-223 -348h-94z"/>
<glyph glyph-name="Ydieresis" horiz-adv-x="1352" unicode="Ÿ" d="M791 612h18l328 599q7 13 10.5 26.5t3.5 28.5q0 26 -14 46.5t-38 29.5q-11 4 -30 9q-34 9 -35 25q0 11 10 17t27 6h272q18 0 27.5 -6t9.5 -17q0 -8 -69 -40.5t-105 -96.5l-379 -690v-408q0 -30 14.5 -48t49.5 -32q15 -6 41 -13q37 -10 37 -25q-1 -12 -10.5 -17.5 t-26.5 -5.5h-412q-17 0 -26.5 5.5t-10.5 17.5q0 16 36 25q25 7 40 13q34 13 49 32t15 48v381l-439 692q-45 72 -129 113.5t-84 48.5q1 12 10.5 17.5t26.5 5.5h432q18 0 27.5 -6t9.5 -17q0 -15 -32 -25q-14 -5 -22 -8q-24 -8 -37 -20t-13 -27q0 -5 1.5 -10.5t4.5 -9.5z M502 1777q35 0 61.5 -26t26.5 -62q0 -39 -25 -64.5t-63 -25.5t-63 25.5t-25 64.5q0 36 26.5 62t61.5 26zM850 1777q35 0 61.5 -26t26.5 -62q0 -38 -25.5 -64t-62.5 -26q-38 0 -63 25.5t-25 62.5t26 63.5t62 26.5z"/>
<glyph glyph-name="circumflex" d="M465 1313h94l223 -348h-47l-223 231l-223 -231h-47z" unicode="ˆ"/>
<glyph glyph-name="caron" d="M242 1313h47l223 -232l223 232h47l-223 -348h-94z" unicode="ˇ"/>
<glyph glyph-name="tilde" d="M754 1233h43q-19 -90 -63.5 -137t-110.5 -47q-15 0 -33 3t-45 11l-117 37q-19 5 -35.5 8.5t-23.5 3.5q-42 0 -64 -20.5t-35 -69.5h-43q16 86 60.5 134t109.5 48q20 0 42.5 -3.5t47.5 -10.5l117 -37q14 -4 27.5 -6t27.5 -2q38 0 61 21t34 67z" unicode="˜"/>
<glyph glyph-name="pi" horiz-adv-x="1354" unicode="π" d="M1329 885l-35 -162h-329q-34 -179 -54 -452q-23 -314 -120 -314q-38 0 -58 24.5t-20 69.5q0 58 77 280.5t117 391.5h-375q-33 -177 -53 -448q-25 -318 -123 -318q-37 0 -57 25t-20 71q0 56 77.5 277t118.5 393h-133q-136 0 -180 -43.5t-72 -171.5h-59q37 207 117.5 292 t238.5 85h942z"/>
<glyph glyph-name="endash" d="M0 360v109h1024v-109h-1024z" unicode="–"/>
<glyph glyph-name="emdash" horiz-adv-x="2048" unicode="—" d="M0 360v109h2048v-109h-2048z"/>
<glyph glyph-name="quoteleft" horiz-adv-x="502" unicode="‘" d="M344 1176q0 -37 -27.5 -65t-64.5 -28q-44 0 -74.5 40t-30.5 100q0 78 51.5 139t108.5 61q13 0 20 -4t7 -12t-51.5 -47t-51.5 -74q1 -22 27 -24q12 -1 18 -2q32 -9 50 -31.5t18 -52.5z"/>
<glyph glyph-name="quotesinglbase" horiz-adv-x="502" unicode="‚" d="M160 68q0 37 27 64.5t65 27.5q44 0 73 -39t29 -98q0 -77 -51 -139t-108 -62q-13 0 -19 3.5t-6 10.5t51 46.5t51 78.5q0 18 -27 21q-21 2 -34 8q-24 10 -37.5 30.5t-13.5 47.5z"/>
<glyph glyph-name="quotedblleft" horiz-adv-x="840" unicode="“" d="M678 1176q0 -38 -27 -65.5t-63 -27.5q-45 0 -75 40t-30 100q0 78 51 139t109 61q12 0 18.5 -4t6.5 -12t-50.5 -47t-50.5 -74q1 -22 25 -24q12 -1 19 -3q31 -8 49 -30.5t18 -52.5zM342 1176q0 -38 -27 -65.5t-63 -27.5q-44 0 -74.5 40t-30.5 100q0 78 51.5 139t108.5 61 q12 0 18.5 -4t6.5 -12t-50.5 -47t-50.5 -74q1 -22 27 -24q12 -1 18 -2q31 -9 48.5 -31.5t17.5 -52.5z"/>
<glyph glyph-name="quotedblright" horiz-adv-x="840" unicode="”" d="M160 1329q0 38 27 65t65 27q44 0 73 -38.5t29 -98.5q0 -77 -51 -139t-108 -62q-14 1 -19.5 4.5t-5.5 10.5t51 46t51 79q0 16 -27 20q-22 3 -35 9q-23 10 -36.5 30.5t-13.5 46.5zM496 1329q0 38 27 65t65 27q44 0 73 -38.5t29 -98.5q0 -77 -51 -139t-109 -62 q-13 1 -18.5 4.5t-5.5 10.5t51 46t51 79q0 16 -27 20q-22 3 -34 8q-25 11 -38 31.5t-13 46.5z"/>
<glyph glyph-name="dagger" d="M586 -121q0 -28 11.5 -45t46.5 -33q11 -5 30 -11q39 -12 39 -30q0 -10 -9.5 -16t-25.5 -6h-334q-15 0 -24 6t-9 16q0 18 39 30q19 6 30 11q34 16 46 33t12 45v1002h-219q-28 0 -46 -15t-32 -51q-6 -14 -13 -38q-11 -38 -28 -38q-11 1 -16.5 10t-5.5 27v303q0 18 6 27.5 t16 9.5q17 0 28 -37q7 -24 13 -39q14 -36 31.5 -50.5t46.5 -14.5h219v282q0 29 -12.5 47t-45.5 34q-10 4 -32 11q-37 11 -37 27q0 11 9 17t24 6h334q16 0 25.5 -6.5t9.5 -16.5q0 -16 -37 -27q-22 -7 -32 -11q-34 -16 -46 -34t-12 -47v-282h219q28 0 45 11.5t33 46.5 q5 11 11 30q12 39 30 39q10 0 16 -9t6 -24v-283q0 -15 -6 -23.5t-16 -8.5q-18 0 -30 38q-7 21 -11 31q-16 33 -33 45.5t-45 12.5h-219v-1002z" unicode="†"/>
<glyph glyph-name="daggerdbl" d="M586 256h219q27 0 44.5 14t33.5 52q6 14 13 38q11 37 28 37q11 0 16.5 -9.5t5.5 -27.5v-303q0 -18 -5.5 -27t-16.5 -10q-17 1 -28 39q-7 25 -13 39q-16 36 -33 50t-45 14h-219v-283q0 -28 11.5 -45t46.5 -33q11 -5 30 -11q39 -12 39 -30q0 -10 -9.5 -16t-25.5 -6h-334 q-15 0 -24 6t-9 16q0 18 39 30q19 6 30 11q34 16 46 33t12 45v283h-219q-28 0 -45 -12t-33 -46q-5 -11 -11 -31q-12 -38 -30 -38q-10 0 -16 9.5t-6 25.5v280q0 16 6 24.5t16 8.5q18 0 30 -38q6 -20 11 -31q17 -35 34 -46.5t44 -11.5h219v625h-219q-28 0 -46 -15t-32 -51 q-6 -14 -13 -38q-11 -38 -28 -38q-11 1 -16.5 10t-5.5 27v303q0 18 6 27.5t16 9.5q17 0 28 -37q7 -24 13 -39q14 -36 31.5 -50.5t46.5 -14.5h219v282q0 29 -12.5 47t-45.5 34q-10 4 -32 11q-37 11 -37 27q0 11 9 17t24 6h334q16 0 25.5 -6.5t9.5 -16.5q0 -16 -37 -27 q-22 -7 -32 -11q-34 -16 -46 -34t-12 -47v-282h219q28 0 45 11.5t33 46.5q5 11 11 30q12 39 30 39q10 0 16 -9t6 -24v-283q0 -15 -6 -23.5t-16 -8.5q-18 0 -30 38q-7 21 -11 31q-16 33 -33 45.5t-45 12.5h-219v-625z" unicode="‡"/>
<glyph glyph-name="ellipsis" horiz-adv-x="2048" unicode="…" d="M250 68q0 37 27.5 64.5t64.5 27.5q38 0 65 -27t27 -65q0 -37 -27.5 -65t-64.5 -28q-36 0 -64 28t-28 65zM932 68q0 37 27.5 64.5t64.5 27.5q38 0 65 -27t27 -65q0 -37 -27.5 -65t-64.5 -28q-36 0 -64 28t-28 65zM1616 68q0 37 27.5 64.5t64.5 27.5q38 0 65 -27t27 -65 q0 -37 -27.5 -65t-64.5 -28q-36 0 -64 28t-28 65z"/>
<glyph glyph-name="perthousand" horiz-adv-x="2460" unicode="‰" d="M401 612q82 0 120 82t38 256q0 238 -36 334t-122 96q-83 0 -120 -94.5t-37 -312.5q0 -193 37 -277t120 -84zM1305 18q81 0 119 82t38 256q0 238 -36 334t-121 96q-84 0 -121 -94.5t-37 -312.5q0 -193 37 -277t121 -84zM449 0h-84l915 1399h86zM1305 829q134 0 220.5 -131 t86.5 -342q0 -171 -85.5 -276t-221.5 -105t-222 105.5t-86 275.5q0 210 87 341.5t221 131.5zM401 1421q135 0 221.5 -131.5t86.5 -341.5q0 -170 -85 -274.5t-223 -104.5q-136 0 -220.5 104.5t-84.5 274.5q0 210 86 341.5t219 131.5zM2058 829q135 0 221 -131t86 -342 q0 -171 -85 -276t-222 -105q-136 0 -220.5 105.5t-84.5 275.5q0 210 86 341.5t219 131.5zM2058 18q82 0 121 82.5t39 255.5q0 236 -37 333t-123 97q-83 0 -120 -94.5t-37 -312.5q0 -193 37 -277t120 -84z"/>
<glyph glyph-name="guilsinglleft" horiz-adv-x="530" unicode="‹" d="M421 746q5 -3 9 -10t4 -11t-2 -8.5t-6 -10.5l-184 -290l184 -291q4 -6 6 -10.5t2 -8.5q0 -3 -4 -10t-8 -10l-19 -14q-3 -4 -8.5 -6.5t-9.5 -2.5q-6 0 -13.5 4.5t-13.5 12.5l-258 316q-4 5 -6 10t-2 10q0 4 1.5 7.5t7.5 11.5l257 317q7 6 14 10t13 4q3 0 9 -2t9 -4z"/>
<glyph glyph-name="guilsinglright" horiz-adv-x="530" unicode="›" d="M108 745l21 15q5 3 10 4.5t8 1.5q6 0 12 -3.5t13 -10.5l258 -318q6 -8 8 -11.5t2 -6.5t-2.5 -8.5t-7.5 -12.5l-258 -315q-7 -8 -13 -12.5t-12 -4.5q-4 0 -9 2.5t-9 6.5l-21 14q-3 2 -6.5 9t-3.5 11t2.5 9t5.5 9l185 292l-184 290q-2 3 -4 7q-4 7 -5 12q0 4 3.5 11t6.5 9z "/>
<glyph glyph-name="trademark" horiz-adv-x="1683" unicode="™" d="M256 1438h440l11 -178h-25q-8 79 -40.5 115t-96.5 36h-21v-426q0 -23 12 -37t33 -16l31 -2v-27h-248v27l31 2q21 1 33 15.5t12 37.5v426h-20q-64 0 -97 -36t-41 -115h-26zM788 1438h183l141 -400l148 400h174v-25l-30 -2q-22 -2 -34 -15.5t-12 -37.5v-373q0 -24 12 -37.5 t34 -15.5l30 -2v-27h-236v27l31 2q21 2 33 16t12 37v395l-178 -479h-15l-174 479v-395q0 -23 12.5 -37t34.5 -16l31 -2v-27h-197v27l34 2q21 2 32.5 16t11.5 37v371q0 23 -12.5 37t-34.5 16l-31 2v27z"/>
<glyph glyph-name="partialdiff" horiz-adv-x="1044" unicode="∂" d="M709 483q0 117 -45 180.5t-127 63.5q-113 0 -184.5 -127.5t-71.5 -333.5q0 -117 44 -178t128 -61q111 0 183.5 128t72.5 328zM754 604q13 81 19.5 161.5t6.5 158.5q0 140 -39.5 216.5t-111.5 76.5q-53 0 -117 -63.5t-109 -63.5q-29 0 -51 21.5t-22 51.5q0 59 68 105.5 t163 46.5q171 0 273 -152.5t102 -412.5q0 -335 -139 -555t-344 -220q-147 0 -241.5 106.5t-94.5 272.5q0 189 108.5 316t266.5 127q99 0 162.5 -47t99.5 -146z"/>
<glyph glyph-name="product" horiz-adv-x="1595" unicode="∏" d="M57 1473h1479v-70h-186v-1727h186v-69h-555v69h197v1727h-762v-1727h196v-69h-555v69h187v1727h-187v70z"/>
<glyph glyph-name="summation" horiz-adv-x="1434" unicode="∑" d="M12 1473h1135l98 -340h-74l-67 219q-8 27 -32 39t-73 12h-741l864 -850v-37l-858 -756h893q60 0 77.5 13t29.5 51l71 229h74l-135 -446h-1260v28l959 838l-961 950v50z"/>
<glyph glyph-name="minus" horiz-adv-x="1706" unicode="−" d="M254 670h1198v-119h-1198v119z"/>
<glyph glyph-name="radical" horiz-adv-x="1288" unicode="√" d="M1106 1647h182v-82h-119l-594 -1606h-53l-323 893l-119 -43l-23 68l262 92l265 -729z"/>
<glyph glyph-name="infinity" horiz-adv-x="1706" unicode="∞" d="M866 494q-71 -138 -148 -201.5t-173 -63.5q-134 0 -226 109t-92 272q0 172 82.5 277.5t214.5 105.5q97 0 172 -63t144 -203q67 138 146 204t175 66q134 0 226 -108.5t92 -272.5q0 -171 -82 -277t-213 -106q-96 0 -169 60t-149 201zM803 666q-51 95 -119 142.5t-154 47.5 q-105 0 -171 -71t-66 -183q0 -108 61 -179t152 -71q85 0 152 69t145 245zM905 559q51 -95 119 -141.5t156 -46.5q102 0 168.5 71t66.5 181q0 108 -61 179.5t-152 71.5q-85 0 -153.5 -72.5t-143.5 -242.5z"/>
<glyph glyph-name="approxequal" horiz-adv-x="1706" unicode="≈" d="M1530 934v-131q-104 -73 -200 -108.5t-187 -35.5q-100 0 -290 69t-290 69q-83 0 -171.5 -36t-213.5 -122v131q106 73 202 109t185 36q111 0 300.5 -68.5t277.5 -68.5q87 0 175 35t212 121zM1530 584v-131q-107 -75 -202 -110.5t-187 -35.5q-98 0 -288 69.5t-290 69.5 q-82 0 -169.5 -35.5t-215.5 -123.5v131q108 74 203.5 110.5t183.5 36.5q111 0 301.5 -69.5t276.5 -69.5q85 0 173.5 35.5t213.5 122.5z"/>
<glyph glyph-name="notequal" horiz-adv-x="1706" unicode="≠" d="M1210 1180l88 -70l-196 -250h350v-115h-424l-211 -270h635v-115h-709l-251 -319l-89 70l197 249h-346v115h420l211 270h-631v115h704z"/>
<glyph glyph-name="lessequal" horiz-adv-x="1706" unicode="≤" d="M1444 1192v-125l-977 -324l977 -323v-125l-1182 399v101zM262 150h1182v-117h-1182v117z"/>
<glyph glyph-name="greaterequal" horiz-adv-x="1706" unicode="≥" d="M262 1192l1182 -397v-101l-1182 -399v125l979 323l-979 324v125zM262 150h1182v-117h-1182v117z"/>
<glyph glyph-name="lozenge" horiz-adv-x="1012" unicode="◊" d="M506 1653l500 -1061l-500 -1069l-500 1069zM506 1409l-385 -817l385 -825l385 825z"/>
</font>
</defs>
</svg>
